<?xml version="1.0" encoding="UTF-8" standalone="no"?>
<!-- Created with Inkscape (http://www.inkscape.org/) -->

<svg
   xmlns:dc="http://purl.org/dc/elements/1.1/"
   xmlns:cc="http://creativecommons.org/ns#"
   xmlns:rdf="http://www.w3.org/1999/02/22-rdf-syntax-ns#"
   xmlns:svg="http://www.w3.org/2000/svg"
   xmlns="http://www.w3.org/2000/svg"
   xmlns:sodipodi="http://sodipodi.sourceforge.net/DTD/sodipodi-0.dtd"
   xmlns:inkscape="http://www.inkscape.org/namespaces/inkscape"
   id="svg3074"
   version="1.1"
   inkscape:version="0.48.4 r9943 custom"
   width="300"
   height="300"
   sodipodi:docname="mellema.xyz.png">
  <metadata
     id="metadata3080">
    <rdf:RDF>
      <cc:Work
         rdf:about="">
        <dc:format>image/svg+xml</dc:format>
        <dc:type
           rdf:resource="http://purl.org/dc/dcmitype/StillImage" />
        <dc:title></dc:title>
      </cc:Work>
    </rdf:RDF>
  </metadata>
  <defs
     id="defs3078" />
  <sodipodi:namedview
     pagecolor="#ffffff"
     bordercolor="#666666"
     borderopacity="1"
     objecttolerance="10"
     gridtolerance="10"
     guidetolerance="10"
     inkscape:pageopacity="0"
     inkscape:pageshadow="2"
     inkscape:window-width="1366"
     inkscape:window-height="668"
     id="namedview3076"
     showgrid="false"
     fit-margin-top="0"
     fit-margin-left="0"
     fit-margin-right="0"
     fit-margin-bottom="0"
     inkscape:zoom="1.259534"
     inkscape:cx="305.74716"
     inkscape:cy="136.41782"
     inkscape:window-x="0"
     inkscape:window-y="23"
     inkscape:window-maximized="0"
     inkscape:current-layer="svg3074" />
  <rect
     style="fill:#ecf0f1;fill-opacity:1;fill-rule:nonzero;stroke:none"
     id="rect3583"
     width="400.94196"
     height="366.80234"
     x="-36.521446"
     y="-25.517227" />
  <g
     id="g3357"
     transform="matrix(0.6,0,0,0.6,1.3146751e-6,240)">
    <path
       transform="matrix(0.77557507,0,0,0.96887226,-262.31524,-516.32582)"
       d="m 982.90323,378.09506 c 0,142.50711 -144.31719,258.03195 -322.34146,258.03195 -178.02428,0 -322.34146,-115.52484 -322.34146,-258.03195 0,-142.50711 144.31718,-258.03195 322.34146,-258.03195 178.02427,0 322.34146,115.52484 322.34146,258.03195 z"
       sodipodi:ry="258.03195"
       sodipodi:rx="322.34146"
       sodipodi:cy="378.09506"
       sodipodi:cx="660.56177"
       id="path3090"
       style="fill:#999999;fill-opacity:1;fill-rule:nonzero;stroke:none"
       sodipodi:type="arc" />
    <g
       id="g3295">
      <path
         style="fill:#000000"
         d="m 63.599242,89.01644 c -0.92873,-0.92873 -1.56996,-3.28043 -1.56783,-5.75 0.002,-2.29821 3.82326,-67.95157 8.49173,-145.89635 l 8.48813,-141.71777 -2.46528,-3.6328 c -4.75288,-7.00375 -4.46831,-12.80938 0.87218,-17.79374 2.97115,-2.77302 3.13832,-3.35288 3.75367,-13.02009 0.35421,-5.5648 0.69171,-13.29389 0.74999,-17.17576 l 0.10597,-7.05794 -4.16479,-0.94206 c -5.13233,-1.16091 -7.28522,-3.94204 -9.33753,-12.06231 -1.73895,-6.88039 -1.26527,-9.12563 2.99285,-14.18612 3.11896,-3.70666 6.12374,-4.0715 9.78882,-1.18854 l 2.54906,2.00509 0.60226,-7.25509 c 0.33124,-3.9903 1.72344,-26.33831 3.09377,-49.66224 1.53089,-26.05662 2.92121,-42.9249 3.60598,-43.75 1.65703,-1.9966 5.67665,-1.62464 7.10165,0.65715 0.68696,1.1 1.63381,2 2.104108,2 0.47029,0 2.16205,0.93064 3.75945,2.06809 2.22584,1.58494 2.90437,2.85837 2.90437,5.45078 0,9.19534 6.90482,32.34292 13.32876,44.68308 6.64802,12.77062 7.69901,14.62961 10.46623,18.51271 1.34756,1.89096 2.53667,5.39099 2.88782,8.5 0.32832,2.90694 1.24062,6.56164 2.02734,8.12157 1.34002,2.65704 2.63333,7.69276 5.69226,22.16377 0.69757,3.3 2.22196,7.57754 3.38755,9.50565 1.16559,1.9281 2.78749,6.37017 3.60424,9.87125 0.81675,3.50109 2.33717,7.32355 3.3787,8.49436 1.04154,1.1708 4.33122,7.17101 7.3104,13.33378 2.97919,6.16277 6.02265,11.22527 6.76325,11.25 0.7406,0.0247 3.39146,1.84496 5.89079,4.04496 2.49933,2.2 5.1058,4 5.79216,4 0.68635,0 1.55282,-1.62528 1.92548,-3.61173 2.46012,-13.11356 20.07241,-10.02695 27.41003,4.8037 l 1.98164,4.00525 1.59967,-3.09342 c 0.97526,-1.88593 3.48576,-4.04917 6.4316,-5.54194 3.95134,-2.00229 5.32328,-3.45282 7.52809,-7.95929 1.4829,-3.03092 4.11496,-6.7046 5.84904,-8.16373 7.5508,-6.35358 19.77747,0.67218 21.69454,12.46625 0.73605,4.52829 2.37368,4.47348 3.11778,-0.10436 1.32574,-8.1561 8.09598,-14.80073 15.08051,-14.80073 3.15147,0 4.56924,0.71712 7.79481,3.94269 2.16848,2.16848 4.46906,5.69954 5.1124,7.8468 0.98538,3.28892 2.00082,4.31173 6.44411,6.49093 3.62105,1.77593 5.69988,3.54802 6.63172,5.65319 1.38246,3.1232 2.86909,4.06885 2.86909,1.82505 0,-2.65047 7.24937,-11.64911 10.70604,-13.28941 9.28256,-4.40486 15.45901,-2.61974 17.51349,5.06175 0.65741,2.45795 1.71359,4.469 2.34708,4.469 0.6335,0 3.19672,-1.8 5.69605,-4 2.49933,-2.2 4.9694,-4 5.48903,-4 0.90377,0 4.87417,-9.64754 18.93108,-46 3.50916,-9.075 6.81486,-17.27941 7.346,-18.23201 2.2921,-4.11089 5.15093,-12.6812 5.92695,-17.76799 0.56355,-3.69408 2.18313,-7.63427 4.93249,-12 8.63248,-13.7076 14.88152,-27.97091 18.5643,-42.37264 1.95112,-7.62995 3.54749,-15.57524 3.54749,-17.6562 0,-3.39487 0.51388,-4.15273 5.00231,-7.37735 5.422,-3.89532 8.04981,-4.44086 10.01061,-2.07825 0.87186,1.05053 2.12498,15.8556 4.08394,48.25 1.55438,25.70394 2.84347,48.16232 2.86464,49.90752 l 0.0385,3.17307 2.92308,-2.92307 c 4.92383,-4.92384 9.35708,-3.34211 13.47586,4.80804 1.51282,2.99352 1.51025,3.71937 -0.035,9.87087 -2.11361,8.41433 -4.56732,11.34734 -10.11554,12.09151 l -4.2484,0.56984 0.0698,5.61833 c 0.0384,3.09008 0.40152,10.71042 0.80698,16.93409 l 0.73719,11.31576 3.65167,3.34537 c 2.00842,1.83995 3.95429,4.55113 4.32417,6.02483 0.87259,3.47668 -1.00904,9.65465 -4.03628,13.25231 l -2.3932,2.84417 8.58469,145.35821 8.58469,145.35821 -2.27563,1.84269 c -2.11502,1.71262 -4.772,1.84269 -37.64181,1.84269 l -35.36616,0 -1.50284,-2.29362 c -1.31398,-2.00539 -1.50213,-15.98606 -1.49719,-111.25 0.003,-59.92601 -0.0243,-110.98138 -0.0608,-113.45638 l -0.0665,-4.5 -3.03432,3.5 c -1.66888,1.925 -3.90974,5.1875 -4.97969,7.25 -1.06995,2.0625 -2.40139,3.75 -2.95876,3.75 -0.55737,0 -1.91442,1.52711 -3.01567,3.39359 -3.04221,5.15616 -6.67962,6.25323 -12.37705,3.73298 -5.44214,-2.40729 -7.55329,-6.32853 -7.55329,-14.02935 0,-8.89488 2.83924,-13.09722 8.84892,-13.09722 4.48888,0 7.70019,2.06737 8.56527,5.51414 0.85887,3.422 -1.05948,10.23047 -3.19815,11.35069 -2.32254,1.21652 -5.89331,-0.27265 -6.69265,-2.79113 -0.83222,-2.6221 0.0713,-4.0737 2.53563,-4.0737 2.4054,0 2.65562,-3.51179 0.31423,-4.41026 -6.13443,-2.35401 -6.80091,13.52748 -0.68464,16.31424 2.52383,1.14994 2.91242,0.98179 5.97875,-2.58705 3.61924,-4.21238 7.33264,-10.64478 7.33264,-12.7017 0,-0.72775 1.22363,-2.62639 2.71918,-4.21921 6.8283,-7.27239 12.17662,-14.34239 11.27246,-14.90119 -0.5454,-0.33707 -0.99164,-3.61069 -0.99164,-7.27469 l 0,-6.66182 -3.60586,3.71241 c -4.86833,5.01219 -10.28637,6.62795 -14.87987,4.43747 -1.87901,-0.89604 -4.16516,-2.77194 -5.08033,-4.16868 -2.14961,-3.28071 -2.91776,-3.19989 -4.43654,0.46675 -0.68488,1.65345 -2.98829,4.74933 -5.1187,6.87973 -3.34174,3.34174 -3.66791,4.04405 -2.37608,5.11618 1.80491,1.49794 1.93383,6.80905 0.29782,12.26957 -1.61241,5.38174 -9.9476,14.39876 -14.4623,15.64533 -4.02861,1.11235 -7.65825,0.085 -9.22702,-2.61164 -0.77902,-1.33912 -1.04691,1.0357 -1.03716,9.19456 0.0221,18.48521 2.02413,23.5 9.38184,23.5 3.95619,0 5.99119,-2.12207 7.51225,-7.83368 2.04289,-7.6711 -0.21883,-12.12227 -5.21694,-10.26717 -1.70393,0.63243 -2.25111,1.62834 -2.25111,4.09721 0,4.42232 -2.43315,5.93269 -5.89901,3.66177 -3.30673,-2.16666 -3.35894,-5.54824 -0.1393,-9.02229 4.85844,-5.24235 12.98508,-6.27997 17.08376,-2.18129 2.10909,2.10908 2.45455,3.38137 2.45455,9.03983 0,7.40071 -2.40689,13.41567 -6.42064,16.04558 -1.31721,0.86307 -4.6567,1.62073 -7.42108,1.6837 -3.99647,0.091 -5.7325,-0.42426 -8.47394,-2.51526 -1.89628,-1.44637 -3.75693,-3.86148 -4.13477,-5.36692 -0.91656,-3.65187 -2.51291,-1.26905 -2.53426,3.78279 -0.0207,4.90513 -2.43646,11.41508 -5.6515,15.22969 -1.64614,1.95314 -9.71912,21.15693 -21.29084,50.64604 l -18.63929,47.5 -3.34213,0 c -3.17843,0 -3.56005,-0.41633 -7.79122,-8.5 -9.60107,-18.34289 -27.97353,-53.17394 -34.81325,-66 -3.95951,-7.425 -9.62641,-18.11062 -12.5931,-23.74582 -5.04311,-9.57933 -5.62166,-10.28109 -8.89399,-10.78792 -9.08616,-1.40731 -12.35495,-5.59883 -12.84891,-16.47596 -0.33378,-7.35003 -0.18719,-8.04511 2.2002,-10.43249 4.86404,-4.86405 15.11263,-2.41163 18.82144,4.50385 l 1.82727,3.40714 -0.0634,-10.9844 c -0.0441,-7.64354 -0.34009,-10.29565 -0.97315,-8.71986 -1.24283,3.09358 -4.95658,4.35226 -9.3016,3.15254 -4.46395,-1.23255 -13.21015,-10.62963 -14.62082,-15.70886 -1.48208,-5.3364 -1.27928,-10.76561 0.45595,-12.20572 1.29125,-1.07164 0.97682,-1.74719 -2.28782,-4.91542 -2.08164,-2.02016 -4.59691,-5.3844 -5.58947,-7.47608 l -1.80467,-3.80306 -2.34296,3.44797 c -4.87711,7.17731 -12.90348,7.1833 -19.86621,0.0148 l -3.60585,-3.71239 0,6.66182 c 0,3.664 -0.42919,6.92708 -0.95375,7.25128 -0.97998,0.60566 8.72291,13.52858 10.15764,13.52858 0.43925,0 2.22789,3.0375 3.97476,6.75 1.74687,3.7125 4.72994,8.61865 6.62905,10.90255 3.16848,3.81049 3.68594,4.07133 6.28175,3.16642 3.23472,-1.12763 4.23859,-3.47286 4.14986,-9.6948 -0.0687,-4.81909 -1.9688,-7.54894 -4.56177,-6.55393 -2.43923,0.93602 -2.16015,4.42976 0.35384,4.42976 3.36227,0 3.64043,3.02538 0.52458,5.70552 -2.49133,2.14296 -2.99829,2.24473 -4.89814,0.98328 -2.24495,-1.4906 -3.39443,-4.393 -3.55814,-8.98425 -0.14959,-4.19528 3.85109,-7.70455 8.78344,-7.70455 6.2969,0 9.11688,4.05115 9.11688,13.09722 0,7.78878 -2.08023,11.5796 -7.669,13.97522 -4.53964,1.94592 -4.92692,1.96258 -8.47085,0.3645 -3.40525,-1.53556 -10.17156,-7.43694 -8.52692,-7.43694 1.14499,0 -2.92757,-7.20501 -6.21763,-11 l -3.03432,-3.5 -0.0406,114.17857 c -0.0365,102.4304 -0.20233,114.34026 -1.61207,115.75 -1.37098,1.37094 -6.21,1.57143 -37.92861,1.57143 -31.718598,0 -36.557618,-0.20049 -37.928558,-1.57143 z m 68.182778,-122.65959 0.25421,-114.73102 -4.81703,-2.44097 c -2.64936,-1.34253 -5.4038,-3.14799 -6.12097,-4.01213 -0.95753,-1.15375 -2.31038,-1.41022 -5.09224,-0.96538 -8.52563,1.3633 -13.90947,-5.75148 -14.72783,-19.4629 -0.5478,-9.17835 -1.620638,-12.32073 -5.405348,-15.83245 -2.05338,-1.90527 -7.69143,-4.16715 -7.93291,-3.18254 -0.48817,1.99038 -16.56749,274.55559 -16.23022,275.12319 0.24993,0.42062 13.81125,0.64562 30.136268,0.5 l 29.68185,-0.26478 0.25422,-114.73102 z M 434.31846,80.83787 c 0.22478,-0.4125 -3.24233,-62.39503 -7.70469,-137.73895 -7.58889,-128.13331 -8.23114,-137.01162 -9.93507,-137.33977 -1.14114,-0.21976 -3.41742,1.31457 -6.09314,4.1071 l -4.27144,4.45793 -0.49608,9.484 c -0.38336,7.32925 -1.0053,10.39004 -2.73741,13.47191 -2.99048,5.32084 -7.12939,7.71106 -12.00303,6.93173 -2.90993,-0.46531 -4.13897,-0.18289 -5.43469,1.24887 -0.92091,1.01759 -3.46104,2.65583 -5.64474,3.64055 l -3.97036,1.79038 0,114.68146 c 0,63.0748 0.3,114.98146 0.66667,115.34812 0.92458,0.92459 57.11904,0.84332 57.62398,-0.0833 z M 266.02974,-33.18931 c 6.75237,-17.20244 12.10177,-31.45182 11.88755,-31.66528 -0.21422,-0.21346 -3.44914,-1.5394 -7.18872,-2.94654 l -6.79924,-2.55843 -2.06478,3.49955 c -2.35962,3.99926 -4.57641,5.44788 -8.33675,5.44788 -3.76034,0 -5.97713,-1.44862 -8.33675,-5.44788 l -2.06478,-3.49955 -6.77637,2.55061 c -6.36868,2.39717 -6.97056,2.45802 -10.00404,1.01145 -3.22869,-1.53966 -5.49381,-4.84087 -6.65536,-9.69964 -0.46232,-1.93389 -1.61765,-2.88452 -4.5867,-3.77407 -4.65624,-1.39505 -7.63971,-4.80693 -9.16874,-10.48534 -1.57091,-5.83392 -0.53432,-10.18435 3.64066,-15.27937 l 3.64522,-4.4485 -3.84657,-4.36966 c -2.11561,-2.40332 -4.12764,-4.41205 -4.47117,-4.46386 -0.34353,-0.0518 -0.82529,3.61831 -1.07058,8.15581 -0.24934,4.61231 -1.11682,9.51645 -1.96739,11.12222 -1.48035,2.79473 -1.35447,3.18595 4.66562,14.5 3.40286,6.39528 13.06392,24.67778 21.46902,40.62778 23.41499,44.4336 24.23616,45.88887 25.03515,44.36701 0.39472,-0.75186 6.24235,-15.44174 12.99472,-32.64419 z m -7.5071,-42.22282 c -2.36925,-8.78793 -2.56781,-11.24572 -1.69085,-20.92988 0.98571,-10.8852 0.77152,-13.16754 -1.57774,-16.81153 -1.73421,-2.68999 -2.48042,-2.35008 -4.58713,2.08947 -1.38517,2.91903 -1.46172,4.90486 -0.561,14.55179 0.88237,9.45039 0.79736,12.01666 -0.5518,16.6576 l -1.59486,5.48613 2.68088,3.51482 2.68088,3.51482 2.80301,-3.28661 c 1.54166,-1.80764 2.62103,-3.96161 2.39861,-4.78661 z m -21.97564,1.69658 c 5.36072,-2.07644 6.06558,-2.6923 7.15319,-6.25 0.82859,-2.7104 1.0232,-8.23319 0.6213,-17.6319 l -0.58519,-13.68532 3.14575,-4.90223 c 3.36174,-5.23882 4.09052,-10.58424 1.98273,-14.54287 -0.63966,-1.20134 -3.33966,-5.06387 -6,-8.58339 -4.12501,-5.45723 -4.83698,-7.06429 -4.83698,-10.91809 0,-8.18259 2.08765,-16.91793 5.34655,-22.37157 5.39107,-9.02172 10.19248,-6.89223 5.18875,2.30127 -2.8659,5.2656 -5.82261,19.02276 -4.69726,21.85571 0.36408,0.91653 2.67537,4.38245 5.1362,7.70204 l 4.47423,6.03561 4.69824,-6.20623 c 2.58404,-3.41343 4.82291,-6.83475 4.97527,-7.60292 0.80333,-4.05018 -1.45995,-14.94202 -4.28036,-20.59887 -1.73183,-3.47351 -2.81851,-6.91566 -2.46998,-7.8239 2.07633,-5.41085 9.66041,5.43969 11.4728,16.41415 2.0476,12.39869 1.75116,14.0269 -3.91703,21.5144 -8.72909,11.53087 -9.1899,14.71046 -3.39993,23.45969 l 2.75216,4.1588 -0.68637,13.73952 c -0.92247,18.46538 -0.13759,20.82763 7.9627,23.96522 3.22934,1.25086 6.42483,2.2743 7.10108,2.2743 4.48805,0 6.23742,-16.14463 2.2662,-20.91448 -1.95314,-2.34593 -2.10631,-2.36865 -5.39547,-0.80016 -2.46831,1.17706 -3.47227,2.37278 -3.70652,4.41448 -0.25636,2.2345 -0.82628,2.80016 -2.82126,2.80016 -3.65995,0 -4.00582,-5.1512 -0.61633,-9.17937 2.8284,-3.36138 9.28213,-5.87887 12.47386,-4.86585 3.19593,1.01435 7.25038,6.93077 7.85897,11.46813 0.53305,3.97422 0.552,3.98961 3.21517,2.61243 3.19419,-1.65178 5.06834,-5.36444 5.06834,-10.04029 0,-4.47341 -6.34541,-11.49505 -10.388,-11.49505 -3.82045,0 -12.25761,-8.08508 -13.79622,-13.22052 -0.91732,-3.06172 -0.90542,-5.2829 0.0532,-9.92395 0.70214,-3.39942 0.94243,-7.93041 0.55691,-10.50123 -0.54652,-3.64448 -0.29562,-5.03922 1.29308,-7.18809 4.26111,-5.76356 5.28104,-8.96133 5.28104,-16.55753 0,-4.11986 0.45792,-7.77366 1.0176,-8.11956 0.62333,-0.38524 0.23588,-1.6227 -1,-3.19387 -1.10968,-1.41073 -2.0176,-3.44847 -2.0176,-4.5283 0,-1.83215 -0.41757,-1.90666 -6.25,-1.11514 -3.4375,0.46651 -11.2,0.84819 -17.25,0.84819 -6.05,0 -13.8125,-0.38168 -17.25,-0.84819 -5.54058,-0.75191 -6.25,-0.65592 -6.25,0.84563 0,0.9316 -0.90815,2.96919 -2.0181,4.52798 -1.24566,1.74936 -1.62842,3.07501 -1,3.46339 0.55995,0.34607 1.0181,4.11664 1.0181,8.37904 0,7.10918 0.29452,8.2389 3.56283,13.66646 3.20402,5.32082 3.49674,6.39712 2.90666,10.68756 -0.384,2.79198 -0.14287,6.77367 0.58132,9.59933 1.94181,7.57654 0.65513,11.77721 -5.48955,17.92189 -3.84553,3.84551 -6.01057,5.25691 -8.06394,5.25691 -4.14305,0 -10.49734,6.94731 -10.49734,11.47701 0,5.03486 1.56047,8.24434 4.83069,9.93544 l 2.91661,1.50823 0.53621,-3.99777 c 0.65139,-4.85647 4.87221,-10.67291 8.38477,-11.5545 3.27611,-0.82225 10.62651,2.62567 12.85807,6.03146 0.89043,1.35897 1.47377,3.73745 1.29631,5.28549 -0.25538,2.22775 -0.83069,2.81464 -2.75909,2.81464 -1.88978,0 -2.61826,-0.70167 -3.24681,-3.12736 -0.56264,-2.17128 -1.76442,-3.52253 -3.93105,-4.41998 -2.88455,-1.19482 -3.26142,-1.10952 -4.98095,1.12736 -1.99086,2.58983 -2.17099,3.66006 -1.92213,11.41998 0.16618,5.18184 2.13284,9.5 4.32667,9.5 0.69476,0 3.93921,-1.03654 7.2099,-2.30342 z m -41.56699,-26.4568 c 1.36132,-1.10233 2.3879,-3.35662 2.74668,-6.03148 l 0.57289,-4.27126 -3.03201,1.74014 c -2.62102,1.50426 -3.26111,1.55 -4.72209,0.33749 -1.17292,-0.97344 -1.51641,-2.27102 -1.12252,-4.24049 0.47197,-2.35985 0.15108,-2.9962 -1.90511,-3.77796 -5.057,-1.92267 -7.06925,0.95861 -5.93798,8.50242 0.92662,6.17918 3.69228,9.50136 7.90973,9.50136 1.82415,0 4.29483,-0.7921 5.49041,-1.76022 z m 101.90148,-11.24988 1.04933,-3.01011 -2.35392,1.76011 c -1.70387,1.27404 -2.0709,2.10529 -1.32906,3.0101 1.39203,1.69783 1.43919,1.66632 2.63365,-1.7601 z m -70.91519,-6.42724 4.35492,-4.43734 -0.82487,-5.31266 c -0.45367,-2.92196 -0.87939,-7.78766 -0.94602,-10.81266 -0.0879,-3.99182 -0.99862,-7.28239 -3.32106,-12 -1.75994,-3.575 -3.21779,-7.85 -3.23967,-9.5 -0.0394,-2.97576 -0.0837,-2.95152 -5.4793,3 -5.20206,5.73807 -9.26084,13.82321 -11.04409,22 -0.63582,2.91544 -0.61006,2.94047 0.91384,0.88782 3.69427,-4.97608 13.58184,-5.67727 18.24756,-1.29405 3.43345,3.22555 4.77506,8.68516 2.85452,11.61627 -2.7808,4.24404 -12.18562,2.0793 -11.21509,-2.58142 0.22551,-1.08294 1.24741,-1.56554 3.04995,-1.44036 2.8729,0.19952 3.57577,-1.4233 1.51081,-3.48826 -1.73306,-1.73306 -6.83967,-1.47407 -8.97126,0.45499 -2.1387,1.9355 -2.34397,6.78755 -0.433,10.23537 1.12983,2.03847 7.98688,7.08883 9.64605,7.10452 0.29799,0.003 2.50151,-1.99168 4.89671,-4.43222 z m 64.27339,2.1981 c 6.30097,-3.54134 8.81726,-10.8611 5.13313,-14.93202 -2.88129,-3.18379 -10.34501,-1.93376 -10.34501,1.73259 0,0.69797 0.9925,0.9716 2.48756,0.6858 3.26581,-0.6243 4.3981,2.11675 1.97873,4.79012 -2.30352,2.54536 -7.59902,2.57855 -9.87656,0.0619 -1.4429,-1.59438 -1.55031,-2.53189 -0.66622,-5.81513 2.54654,-9.45708 14.19286,-12.53566 20.78238,-5.49359 l 2.53543,2.70956 -0.75414,-3.49599 c -0.74647,-3.46042 -2.36134,-7.6962 -5.14832,-13.50401 -0.79179,-1.65 -3.65262,-5.475 -6.35741,-8.5 l -4.91779,-5.5 -0.0318,3.10908 c -0.0175,1.70999 -1.4403,5.75999 -3.16177,9 -2.35486,4.43211 -3.18424,7.37674 -3.34919,11.89092 -0.12058,3.3 -0.57129,8.55091 -1.00157,11.66869 l -0.78233,5.66869 4.38151,4.06885 c 2.40984,2.23786 4.54525,4.07445 4.74537,4.0813 0.20011,0.007 2.15673,-0.99519 4.34803,-2.22677 z m -134.86092,-7.28854 c -0.32245,-0.84028 -1.54583,-2.02635 -2.71862,-2.63572 -1.96153,-1.01918 -1.93814,-0.89679 0.29196,1.52778 2.78863,3.0318 3.24484,3.24009 2.42666,1.10794 z m 37.64903,-13.19349 c 0,-3.2166 9.62061,-22.80769 14.41468,-29.35357 1.84279,-2.51616 5.87969,-6.2536 8.97091,-8.30543 3.09121,-2.05183 6.33106,-5.1049 7.19966,-6.78459 1.52024,-2.93981 1.48275,-3.15473 -1.00299,-5.74928 -1.87495,-1.95702 -2.58677,-3.77595 -2.59871,-6.64058 l -0.0165,-3.94528 -2.23355,3.90598 c -3.72148,6.50805 -6.77019,8.11672 -15.06668,7.95002 l -7.16682,-0.14401 -5.38733,-5.85599 c -2.96304,-3.2208 -6.56304,-8.40442 -8,-11.51914 -2.38394,-5.16735 -7.12774,-10.15256 -12.3138,-12.94044 -3.82907,-2.0584 0.5742,5.29718 8.77591,14.66 6.85706,7.82782 8.73043,10.6981 10.28449,15.75742 3.649,11.87943 3.62651,13.51759 -0.27432,19.98475 l -3.49756,5.79859 3.5071,4.59455 c 3.87602,5.07787 4.18023,8.6264 0.7811,9.11136 -1.5926,0.22722 -2.61818,-0.64895 -4.09687,-3.5 -1.94062,-3.74171 -4.67173,-5.31008 -6.34062,-3.64119 -1.82655,1.82655 1.33194,9.3984 5.99003,14.35989 5.31913,5.66558 8.07187,6.43526 8.07187,2.25694 z m 129.07188,-2.25694 c 4.65809,-4.96149 7.81658,-12.53334 5.99003,-14.35989 -1.70246,-1.70246 -4.60498,-0.0737 -6.39426,3.5881 -3.09555,6.33518 -8.3613,4.25307 -5.67084,-2.24228 0.67351,-1.626 2.30233,-4.03412 3.6196,-5.35139 l 2.39503,-2.39504 -3.54697,-5.88064 c -3.96265,-6.56981 -3.99234,-8.10615 -0.39383,-20.38065 1.5709,-5.35832 2.98548,-7.64168 8.05376,-13 7.59867,-8.03352 10.43362,-11.70728 11.79272,-15.28198 0.94298,-2.48023 0.87102,-2.67457 -0.68139,-1.84011 -5.2197,2.80571 -9.95861,7.77894 -12.34839,12.95895 -1.43696,3.11472 -5.03696,8.29834 -8,11.51914 l -5.38733,5.85599 -7.16687,0.14401 c -8.29649,0.1667 -11.3452,-1.44197 -15.06668,-7.95002 l -2.23355,-3.90598 -0.0165,3.67327 c -0.011,2.46758 -0.85904,4.67464 -2.58347,6.72401 -2.33263,2.77217 -2.44677,3.30111 -1.25,5.79276 0.72436,1.50811 4.09496,4.67908 7.49023,7.0466 4.28785,2.98992 7.51987,6.3598 10.58256,11.03397 5.86103,8.94479 12.74428,23.30761 12.74428,26.59251 0,4.08977 2.79524,3.27898 8.07187,-2.34133 z m -121.68218,-0.52179 c 0.49007,-2.19092 0.3973,-2.59546 -0.34401,-1.5 -0.55829,0.825 -1.02196,2.3625 -1.03038,3.41667 -0.0204,2.55844 0.55192,1.76026 1.37439,-1.91667 z m 106.60208,-1.21858 c -1.08316,-1.68848 -1.11276,-1.68585 -0.56728,0.0504 0.31653,1.00748 0.62771,2.58248 0.69151,3.5 0.10451,1.50288 0.16073,1.49788 0.56727,-0.0504 0.2482,-0.94522 -0.063,-2.52022 -0.6915,-3.5 z m -178.24791,-20.84664 -3.23746,-6.56523 -0.71907,3.31523 c -0.39549,1.82337 -0.52454,3.87514 -0.28679,4.5595 0.34174,0.98363 6.20367,5.23588 7.24011,5.25198 0.13237,0.002 -1.21619,-2.95061 -2.99679,-6.56148 z m 252.97419,2.38116 c 0.62596,-0.76813 0.80379,-2.91046 0.42717,-5.14626 l -0.64522,-3.83032 -3.25447,6.60831 -3.25446,6.60831 2.8273,-1.46205 c 1.55501,-0.80413 3.30987,-2.05423 3.89968,-2.77799 z m -165.84212,-7.27334 c -0.28491,-0.2849 -1.5575,0.93896 -2.828,2.7197 l -2.30999,3.2377 2.828,-2.7197 c 1.55539,-1.49583 2.59489,-2.9528 2.30999,-3.2377 z m 80.12407,5.14449 c 0,-0.1721 -1.4625,-1.6346 -3.25,-3.25 l -3.25,-2.93709 2.93709,3.25 c 2.73778,3.02946 3.56291,3.70965 3.56291,2.93709 z m -178.5818,-1.29408 c 1.14053,-0.43766 1.58179,-1.9555 1.58179,-5.44098 0,-5.57447 -0.94213,-6.66842 -3.33557,-3.87308 -1.35137,1.57829 -2.09245,1.76235 -3.67838,0.91359 -1.09233,-0.5846 -1.98605,-1.63788 -1.98605,-2.34063 0,-2.05106 5.40748,-6.65191 7.81814,-6.65191 2.16392,0 2.17696,-0.076 0.64319,-3.75 -0.86103,-2.0625 -3.11707,-6.0039 -5.01342,-8.75866 -1.89635,-2.75476 -3.44791,-6.09226 -3.44791,-7.41667 0,-3.92625 -0.94775,-1.82218 -2.49117,5.53061 -1.12926,5.3797 -1.19539,7.5944 -0.30097,10.07889 0.86355,2.39874 0.86182,3.52694 -0.007,4.57384 -1.46569,1.76604 0.0526,11.95362 2.29047,15.36907 1.53155,2.33745 4.63554,3.02894 7.9269,1.76593 z m 280.02892,-1.95265 c 2.36874,-3.61516 3.79081,-13.08651 2.31877,-15.44362 -0.83936,-1.34402 -0.86072,-2.4932 -0.0783,-4.21047 1.11801,-2.45376 0.20947,-11.37382 -1.62459,-15.95015 l -0.93625,-2.33612 -0.0634,2.49134 c -0.0349,1.37024 -1.61495,4.74524 -3.5113,7.5 -1.89635,2.75476 -4.15239,6.69616 -5.01342,8.75866 -1.54769,3.70731 -1.53903,3.75 0.76082,3.75 2.95568,0 7.98266,5.10115 7.15429,7.25986 -0.96274,2.50886 -3.3331,2.86082 -5.39313,0.80079 -1.04169,-1.04169 -2.15648,-1.63148 -2.47732,-1.31065 -1.15273,1.15274 -0.5906,10.0804 0.66667,10.58772 3.29152,1.32816 6.58285,0.56632 8.19712,-1.89736 z m -213.91381,-3.90701 2.61763,-4.46664 -2.09492,-8.28336 c -1.79306,-7.08976 -2.6538,-8.78768 -5.97346,-11.78335 -6.7503,-6.09148 -13.69753,-16.31874 -16.06664,-23.65228 -2.28825,-7.08322 -11.83227,-26.8224 -15.13407,-31.30066 -1.03287,-1.40088 -2.80093,-5.88364 -3.92903,-9.96168 -1.12809,-4.07804 -2.95048,-8.67771 -4.04974,-10.22148 -1.09926,-1.54377 -2.39256,-5.18219 -2.874,-8.08538 -1.43827,-8.67312 -2.97769,-14.87377 -5.57274,-22.44649 -1.35099,-3.94239 -2.46454,-8.44239 -2.47455,-10 -0.01,-1.55762 -1.24751,-4.7186 -2.75,-7.0244 -11.52092,-17.68061 -18.53089,-35.01913 -22.76518,-56.30763 -1.24829,-6.27592 -2.07622,-6.594 -3.822618,-1.4686 -2.94891,8.65456 -4.94158,29.57971 -4.28231,44.9686 0.89029,20.78138 2.53035,36.83587 4.85239,47.5 1.137698,5.225 2.589558,13.325 3.226348,18 l 1.15779,8.5 1.57078,-4.5 c 1.91905,-5.49772 5.83377,-25.34722 5.83217,-29.57186 -6.4e-4,-1.68952 -0.67275,-5.06452 -1.49358,-7.5 -0.82082,-2.43548 -2.63086,-10.05183 -4.02231,-16.92524 -2.27876,-11.25646 -2.37418,-12.61097 -0.96112,-13.64422 0.86283,-0.63092 2.42864,-0.92228 3.47957,-0.64745 2.00875,0.5253 2.15263,0.8767 6.87416,16.78877 3.01756,10.16952 9.95076,29.36769 12.15055,33.64513 0.66608,1.29518 2.89298,4.38448 4.94867,6.86512 7.86479,9.49058 8.55574,11.79232 8.25199,27.48975 -0.29162,15.07103 1.05573,25.65929 3.52688,27.71624 0.84825,0.70607 4.69216,1.50876 8.54204,1.78376 6.15045,0.43933 7.24368,0.8278 9.00999,3.2016 2.32429,3.12368 2.60817,10.17233 0.60451,15.00958 -1.17924,2.84696 -1.08273,3.1894 1.41082,5.00582 1.47216,1.0724 2.67666,2.57763 2.67666,3.34497 0,1.11394 0.48904,1.17233 2.42626,0.28968 3.54526,-1.61533 6.75195,-0.3794 9.47163,3.6506 2.04939,3.03677 2.22946,3.92283 1.239,6.09667 -1.35483,2.9735 -4.42322,2.90552 -4.98301,-0.1104 -0.54502,-2.93632 -2.28287,-4.75953 -3.4368,-3.6056 -2.60334,2.60334 4.79089,16.11708 8.81869,16.11708 0.75896,0 2.55786,-2.00999 3.99755,-4.46665 z m 148.43009,0.85556 c 3.86481,-4.40178 5.3424,-8.03438 4.55086,-11.18813 -0.47758,-1.90281 -0.87584,-2.14559 -1.99543,-1.21641 -0.76932,0.63848 -1.53828,2.14069 -1.7088,3.33825 -0.37803,2.65498 -3.61658,2.93117 -5.1865,0.44233 -0.84263,-1.33585 -0.64361,-2.57218 0.86499,-5.37349 2.49666,-4.63602 5.6291,-6.163 9.58197,-4.67096 2.33239,0.88038 2.92951,0.83253 2.92951,-0.23478 0,-0.73731 1.18109,-2.26961 2.62465,-3.40511 2.41733,-1.90147 2.5267,-2.301 1.38466,-5.05812 -0.68199,-1.64647 -1.2739,-5.24223 -1.31536,-7.99058 -0.0595,-3.9427 0.4236,-5.52813 2.28965,-7.51445 2.02604,-2.15662 3.23983,-2.51746 8.46821,-2.51746 3.75864,0 6.91157,-0.56622 8.20754,-1.47395 3.279,-2.29671 4.70674,-12.11143 3.84593,-26.43825 -0.87489,-14.56112 0.27119,-18.86871 7.34679,-27.61334 2.66465,-3.2932 5.52187,-7.33467 6.34937,-8.98105 1.54796,-3.07977 9.18711,-23.42601 10.13489,-26.99341 0.29224,-1.1 1.91452,-6.56091 3.60507,-12.13535 3.19016,-10.51928 4.97677,-12.61841 8.51872,-10.00888 1.39215,1.02567 1.29394,2.39514 -0.94781,13.21633 -1.37549,6.63966 -3.17359,14.28966 -3.99578,17 -1.74495,5.75225 -1.92429,11.5251 -0.51055,16.4345 0.55328,1.92137 1.65247,7.18726 2.44264,11.70197 0.79017,4.51472 2.00784,9.23972 2.70593,10.5 1.17373,2.11897 1.32701,1.83986 2.03664,-3.70857 0.42207,-3.3 1.88082,-11.4 3.24167,-18 4.81498,-23.3522 6.57688,-55.28803 4.16995,-75.58379 -1.59719,-13.46782 -4.18768,-23.84061 -5.55552,-22.24527 -0.39096,0.45598 -1.45213,4.20406 -2.35816,8.32906 -4.74879,21.62038 -10.71471,36.11433 -22.22719,54 -1.23906,1.925 -2.54225,5.56941 -2.89598,8.0987 -0.35372,2.52928 -1.47813,6.80428 -2.49868,9.5 -1.02056,2.69571 -2.82947,9.6263 -4.01982,15.4013 -1.20509,5.84655 -3.24253,12.34516 -4.59726,14.66341 -1.33816,2.28987 -3.08233,6.94679 -3.87594,10.3487 -0.79362,3.40191 -2.07549,6.92838 -2.8486,7.83659 -2.92245,3.43314 -11.9983,21.83253 -15.23159,30.87888 -3.93361,11.00575 -5.9211,13.99827 -16.30105,24.54399 -3.61609,3.67385 -4.63033,5.63801 -6.32279,12.24463 -2.104,8.21309 -1.95546,9.52458 1.72529,15.2338 2.01918,3.13195 3.6947,2.82242 7.36788,-1.36109 z m -197.97748,-6.69793 c -0.0121,-5.31489 -0.57812,-7.22575 -4,-13.50324 -2.19226,-4.02175 -3.98593,-8.35122 -3.98593,-9.62105 0,-1.26983 -1.57914,-7.42931 -3.5092,-13.68774 -3.93268,-12.75211 -3.92055,-14.89839 0.15682,-27.74524 2.67932,-8.44193 2.88323,-14.03751 0.95236,-26.13371 -1.41959,-8.89317 -6.07151,-21.63666 -6.93582,-19 -0.27043,0.825 -1.28458,5.03786 -2.25365,9.36191 -1.56891,7.00054 -1.59507,7.9553 -0.23882,8.7143 2.61081,1.46108 7.05039,12.82126 7.57766,19.39005 0.42752,5.32589 0.077,7.09421 -2.62802,13.25729 -1.71673,3.91142 -3.12133,7.78644 -3.12133,8.61116 0,0.82471 -0.87619,3.54354 -1.94708,6.04183 -1.07089,2.49829 -2.23425,6.07309 -2.58523,7.94399 -0.53001,2.82519 -0.31063,3.48728 1.29457,3.90705 1.289,0.33708 2.12435,1.68628 2.50807,4.05085 0.31644,1.94999 2.15002,5.83461 4.07462,8.63249 1.9246,2.79787 4.02238,6.775 4.66173,8.83806 1.76497,5.69521 8.27953,18.19217 9.19007,17.62942 0.44179,-0.27304 0.79692,-3.28238 0.78918,-6.68742 z m 244.20057,0.059 c 2.0044,-3.9875 4.17163,-8.95053 4.81605,-11.02895 0.64442,-2.07842 2.69097,-6.03661 4.54788,-8.79597 1.85691,-2.75936 3.67869,-6.62941 4.04839,-8.6001 0.43018,-2.29306 1.34348,-3.75863 2.53669,-4.07067 2.23615,-0.58476 2.29123,-2.42152 0.23254,-7.75431 -0.8493,-2.2 -2.34645,-6.70572 -3.32699,-10.01272 -1.80076,-6.07325 -6.84953,-16.39147 -5.6208,-11.48728 2.99241,11.94349 2.91524,13.02542 -1.98729,27.86377 -1.33813,4.05007 -2.43296,8.7056 -2.43296,10.34563 0,1.64002 -0.83863,4.17633 -1.86361,5.63623 -3.96435,5.64648 -6.13639,12.2944 -6.13639,18.78151 0,3.50508 0.34697,6.37288 0.77106,6.37288 0.42408,0 2.41102,-3.2625 4.41543,-7.25 z m -220.92526,1.49921 c 3.18227,-3.32157 4.81173,-10.95613 2.63287,-12.33582 -1.87936,-1.19003 -5.63239,-1.14587 -6.38703,0.0752 -0.33843,0.54759 0.0238,0.74497 0.81204,0.44249 1.98925,-0.76335 4.84856,2.38897 4.4841,4.94361 -0.66411,4.65493 -8.83447,2.30354 -10.90331,-3.13792 -1.55452,-4.08867 -0.34652,-7.06382 3.24611,-7.99476 2.45861,-0.63709 3.50476,-1.75619 4.93143,-5.2753 3.5212,-8.68564 1.9111,-12.05785 -5.36554,-11.23767 -4.7352,0.53373 -8.86716,-1.03309 -12.07647,-4.57934 -3.29012,-3.63554 -4.85674,-14.24654 -4.11032,-27.83997 0.67666,-12.32284 -0.0291,-17.22162 -3.13074,-21.72984 -1.1253,-1.63564 -1.2395,-0.67253 -0.77075,6.5 0.49055,7.50612 0.21518,9.49189 -2.53667,18.29314 -1.69783,5.43012 -3.08696,10.8203 -3.08696,11.97815 0,3.56104 9.05767,30.76715 12.53434,37.64884 4.99117,9.87945 11.40926,16.66114 16.02857,16.93661 0.5846,0.0349 2.24885,-1.17447 3.69833,-2.6874 z m 204.56662,-2.95568 c 2.38031,-2.56245 5.68998,-7.35736 7.35481,-10.65537 3.4813,-6.8964 12.81734,-34.77007 12.81734,-38.26742 0,-1.29074 -1.40807,-6.73969 -3.12905,-12.10876 -2.8269,-8.81931 -3.07185,-10.57504 -2.53667,-18.18211 0.50396,-7.16338 0.3952,-8.13356 -0.72866,-6.5 -3.11382,4.52598 -3.85585,9.53243 -3.1571,21.30085 1.40319,23.63254 -3.81528,34.23978 -16.16043,32.8483 -7.47986,-0.84308 -8.9369,2.91477 -4.85479,12.521 1.01493,2.38838 2.25859,3.75 3.42513,3.75 3.10043,0 5.4217,3.4481 4.659,6.92065 -1.33012,6.05597 -10.57327,9.6926 -11.32065,4.454 -0.36446,-2.55464 2.49485,-5.70696 4.4841,-4.94361 0.78825,0.30248 1.15047,0.1051 0.81204,-0.44249 -0.75226,-1.21718 -4.50567,-1.26653 -6.37304,-0.0838 -2.1305,1.34939 -0.56781,9.31988 2.46987,12.59759 3.37863,3.6456 6.67335,2.78173 12.2381,-3.20881 z m -91.11871,-12.42448 c 4.28497,-0.62203 8.35335,-1.57713 9.04085,-2.12245 0.6875,-0.54532 1.25,-2.43295 1.25,-4.19473 0,-4.35574 -3.0716,-6.9971 -12.09337,-10.39944 -11.5874,-4.36991 -25.581,-3.50914 -36.73677,2.25973 -5.67746,2.93593 -8.1205,8.24176 -5.3272,11.56968 3.00885,3.5847 27.81459,5.21737 43.86649,2.88721 z m -68.81441,-5.11355 c 0.68384,-1.84859 0.32538,-2.55156 -2.03222,-3.9853 -3.13716,-1.90782 -3.71364,-4.81894 -1.34376,-6.78577 1.24289,-1.03151 1.87863,-0.93478 3.5,0.53255 1.94304,1.75843 1.98082,1.71771 1.95928,-2.11199 -0.0121,-2.14775 -0.9025,-5.84523 -1.9787,-8.21662 -1.85677,-4.09135 -2.14943,-4.29572 -5.72804,-4 l -3.7713,0.31165 -0.30382,5.29489 c -0.23483,4.09259 0.20076,6.1113 1.9183,8.89035 2.02626,3.27855 2.07845,3.70051 0.59215,4.78733 -1.48574,1.0864 -1.49116,1.39004 -0.0613,3.43145 1.25402,1.79038 3.90262,3.53079 6.13689,4.03259 0.15523,0.0349 0.65586,-0.94663 1.11252,-2.18111 z m 110.17057,-1.56564 c 1.76737,-2.24686 1.82628,-2.67103 0.47588,-3.42676 -2.04999,-1.14722 -1.94414,-2.29905 0.51716,-5.62814 1.60802,-2.17496 1.99089,-3.97105 1.75,-8.20951 l -0.30834,-5.42543 -3.60125,-0.3015 c -4.62579,-0.38727 -6.83326,2.69245 -7.62692,10.64063 l -0.56526,5.66087 2.12796,-1.88801 c 1.74465,-1.54793 2.40152,-1.66097 3.64671,-0.62756 2.36988,1.96683 1.7934,4.87795 -1.34376,6.78577 -2.31758,1.4094 -2.70992,2.1533 -2.06096,3.90762 1.02306,2.76558 4.16996,2.09558 6.98878,-1.48796 z m -96.85647,-6.87414 c 1.97225,-4.29865 3.83537,-9.54368 4.14026,-11.65564 0.5368,-3.71844 0.48791,-3.7958 -1.54554,-2.44564 -1.35382,0.8989 -3.4542,5.28313 -5.91176,12.33991 -2.09654,6.02011 -3.82987,11.07398 -3.85184,11.23083 -0.022,0.15685 0.7752,-0.15107 1.77151,-0.68428 0.9963,-0.53321 3.42512,-4.48654 5.39737,-8.78518 z m 83.29132,7.93428 c -0.39261,-0.9625 -1.96767,-5.35 -3.50015,-9.75 -3.91154,-11.23071 -4.01232,-11.43623 -6.17536,-12.59385 -1.80507,-0.96605 -1.89457,-0.77278 -1.28636,2.77778 0.65752,3.83842 5.31467,14.87961 8.04202,19.06607 1.74208,2.67407 3.9617,3.05416 2.91985,0.5 z m -195.12091,-9.00104 c 2.29143,-9.44853 9.02306,-30.19248 11.10305,-34.21473 0.83474,-1.6142 1.5177,-4.83021 1.5177,-7.14668 0,-4.16956 -2.83865,-14.90339 -3.93262,-14.87048 -0.31206,0.009 -1.65965,2.53913 -2.99464,5.62166 -1.335,3.08253 -3.44086,7.09822 -4.67971,8.92376 -2.06274,3.03961 -2.24397,4.39801 -2.15185,16.12834 0.1338,17.03624 -1.7434,22.89176 -8.493168,26.4926 -1.78641,0.95301 -2.56031,1.7516 -1.71979,1.77465 0.84052,0.0231 3.09052,1.14485 5,2.49288 1.90948,1.34803 3.696778,2.47257 3.971778,2.49896 0.275,0.0264 1.34566,-3.43903 2.37925,-7.70096 z m 304.18511,6.64691 c 0.37532,-0.60727 2.4472,-1.89425 4.60419,-2.85997 l 3.9218,-1.75584 -2.99642,-1.24116 c -6.67888,-2.76648 -9.24713,-11.09037 -8.58028,-27.80934 0.36536,-9.16041 0.17237,-12.32726 -0.788,-12.93057 -0.69952,-0.43944 -2.83646,-4.27106 -4.74875,-8.51469 -1.91229,-4.24364 -3.7255,-7.73114 -4.02935,-7.75 -0.30385,-0.0189 -1.35849,2.20721 -2.34364,4.94683 -2.2011,6.12105 -1.77861,13.51192 1.17294,20.51887 3.45712,8.20717 9.38224,27.58898 10.92896,35.75 0.54371,2.86878 1.69358,3.53084 2.85855,1.64587 z m -181.88009,-11.40136 c -0.9452,-1.02192 -1.31398,-0.81314 -1.82683,1.03422 -0.35342,1.27303 -0.98848,2.91236 -1.41125,3.64295 -0.42278,0.73059 0.39929,0.26518 1.82683,-1.03423 2.03197,-1.84959 2.33839,-2.64057 1.41125,-3.64294 z m 57.96765,2.15187 c -0.79534,-2.54105 -1.34357,-3.08623 -2.26263,-2.25 -0.93794,0.85342 -0.73997,1.61376 0.87321,3.35364 1.14737,1.2375 2.16555,2.25 2.26262,2.25 0.0971,0 -0.29588,-1.50914 -0.8732,-3.35364 z m -190.433328,-3.39636 c 3.08038,-3.52664 4.07016,-9.22524 3.50385,-20.17336 -0.30089,-5.81715 -0.0986,-13.02113 0.4496,-16.00885 0.99273,-5.41063 -0.17296,-20.91614 -2.07666,-27.62287 l -0.83591,-2.94492 -0.76405,3 c -0.42022,1.65 -1.39519,3.72876 -2.16659,4.61947 -1.2127,1.40026 -1.1179,2.34162 0.70033,6.9545 3.0748,7.80083 3.0946,16.9527 0.0522,24.13889 -2.37709,5.61477 -2.38831,5.78009 -0.65317,9.62794 2.28267,5.06206 1.79838,7.6592 -1.42821,7.6592 -1.68569,0 -2.58742,-0.63651 -2.83337,-2 -0.62054,-3.44019 -1.89507,-3.82956 -5.08959,-1.55486 -2.34174,1.66748 -3.07703,2.95797 -3.07703,5.40045 0,3.23531 1.98679,7.0978 4.83742,9.40441 2.24895,1.81974 7.60426,1.53432 9.38116,-0.5 z m 329.943988,0.5 c 2.85064,-2.30661 4.83743,-6.1691 4.83743,-9.40441 0,-2.44248 -0.73529,-3.73297 -3.07704,-5.40045 -3.19452,-2.2747 -4.46905,-1.88533 -5.08959,1.55486 -0.24658,1.367 -1.14768,2 -2.84707,2 -3.23473,0 -3.86893,-3.70558 -1.41427,-8.2636 1.73352,-3.21896 1.71909,-3.41923 -0.64956,-9.01425 -3.03784,-7.17572 -3.07277,-16.34801 -0.0908,-23.8431 1.70709,-4.29073 1.82851,-5.42558 0.74892,-7 -0.70867,-1.03348 -1.7372,-3.22905 -2.28561,-4.87905 -0.93248,-2.80553 -1.07954,-2.51769 -2.2685,4.44024 -0.69925,4.09213 -1.26097,10.84213 -1.24826,15 0.11409,37.33205 0.36856,40.14859 4.00318,44.30976 1.7769,2.03432 7.13221,2.31974 9.38116,0.5 z m -183.16258,-3.36683 c 1.14669,-0.44605 0.95249,-0.79434 -0.82448,-1.47866 -2.612,-1.00589 -4.72133,-0.16886 -7.60542,3.01803 l -1.90753,2.10779 4.41872,-1.53183 c 2.43029,-0.84251 5.09371,-1.79441 5.91871,-2.11533 z m 34.95469,1.06223 c -2.17495,-2.62065 -4.63949,-3.49987 -7.13021,-2.54371 l -2.32448,0.89234 2.5,0.95941 c 1.375,0.52767 3.175,1.21348 4,1.52403 0.825,0.31055 2.1176,0.60016 2.87244,0.64358 1.12836,0.0649 1.14298,-0.19754 0.0823,-1.47565 z m -85.52222,-11.13325 c 2.41434,-2.08408 2.4409,-2.21757 0.55999,-2.81454 -4.10859,-1.30402 -6.55785,3.4617 -5.39753,10.50239 l 0.74161,4.5 0.7807,-5 c 0.54237,-3.47366 1.5544,-5.66788 3.31523,-7.18785 z m 133.11764,2.10321 c -0.77965,-4.15588 -2.67075,-5.67417 -6.02032,-4.83348 l -2.66154,0.668 2.29617,1.14477 c 2.90419,1.44789 4.77625,5.1094 4.91104,9.60535 l 0.10493,3.5 0.98637,-3.43512 c 0.54251,-1.88932 0.71501,-4.8816 0.38335,-6.64952 z m -74.02723,2.62167 c -0.70897,-1.14714 -7.19384,-3.05674 -10.02288,-2.95143 -1.1,0.041 0.7,0.88524 4,1.87621 3.3,0.99097 6.13906,1.85496 6.30902,1.91998 0.16996,0.065 0.0412,-0.31513 -0.28614,-0.84476 z m 20.99541,-2.85208 c -0.73803,-0.73802 -8.35038,0.97179 -10.13438,2.27628 -1.33219,0.97412 -0.19836,0.89918 4.35866,-0.28808 3.38758,-0.88257 5.98665,-1.77726 5.77572,-1.9882 z m -29.04193,-9.18495 c 4.29201,0 4.47213,-0.10962 3.29012,-2.00231 -0.68775,-1.10127 -2.74478,-2.49548 -4.57117,-3.09825 -2.8105,-0.92755 -3.63409,-0.81232 -5.36039,0.74995 -1.12182,1.01524 -2.6682,3.06132 -3.4364,4.54685 l -1.39672,2.70095 3.46698,-1.44859 c 1.90684,-0.79673 5.51025,-1.4486 8.00758,-1.4486 z m 36.1517,0.24764 c -0.78282,-1.5138 -2.34116,-3.58301 -3.46298,-4.59825 -1.77046,-1.60224 -2.51093,-1.69035 -5.61006,-0.66755 -1.9637,0.64808 -4.03275,2.04229 -4.59788,3.09825 -0.94546,1.7666 -0.64541,1.92351 3.75768,1.96501 2.63185,0.0248 6.13518,0.66326 7.78518,1.41879 1.65,0.75552 3.12406,1.41022 3.27568,1.45489 0.15162,0.0447 -0.36481,-1.15734 -1.14762,-2.67114 z m 111.26567,-29.24764 c 1.20442,-3.025 3.11974,-6.28657 4.25629,-7.24793 2.03673,-1.72279 2.04199,-1.85222 0.36627,-9 -0.9351,-3.98864 -1.93287,-8.09862 -2.21727,-9.13329 -0.89377,-3.25167 -5.9959,10.58582 -7.19876,19.52377 -1.43796,10.68487 -1.39212,17.76049 0.14225,21.95823 1.23726,3.38488 1.24507,3.36969 1.85194,-3.60078 0.33519,-3.85 1.59487,-9.475 2.79928,-12.5 z m -304.729058,-17.5021 c 0.2916,-5.65416 0.10711,-6.50182 -1.41467,-6.5 -0.96249,10e-4 -1.74999,-0.57277 -1.74999,-1.27539 0,-0.70263 -0.74937,-2.34738 -1.66527,-3.65501 l -1.66528,-2.37751 -1.83472,2.26579 c -2.07054,2.55701 -2.3004,5.82733 -0.79147,11.26048 1.27062,4.57502 3.36834,6.78374 6.44284,6.78374 2.18301,0 2.36616,-0.44459 2.67856,-6.5021 z m 347.038748,4.7521 c 1.86088,-2.15183 3.79659,-7.72679 3.79659,-10.93441 0,-3.17102 -2.80553,-7.32744 -4.50559,-6.67507 -0.74506,0.28591 -1.81269,1.83375 -2.37251,3.43965 -0.55983,1.60591 -1.71627,2.91983 -2.56988,2.91983 -1.24351,0 -1.55202,1.29206 -1.55202,6.5 0,6.47687 0.0101,6.5 2.84501,6.5 1.56476,0 3.52604,-0.7875 4.3584,-1.75 z"
         id="path3084"
         inkscape:connector-curvature="0" />
      <path
         style="fill:#333333;fill-opacity:1;fill-rule:nonzero;stroke:none"
         d="m 87.891882,-195.97951 c -2.86089,2.18811 -1.19391,6.62497 -2.03803,9.74754 -5.82808,88.8087 -10.54802,177.68709 -15.94819,266.5205 0.27454,4.29846 5.87369,2.00123 8.70552,2.57407 17.79194,-0.13985 35.690618,0.27786 53.416448,-0.20735 2.91967,-1.73993 0.86446,-6.20063 1.47829,-9.0909 0,-73.88304 0,-147.76608 0,-221.64912 -1.53852,-3.42576 -6.22816,-3.90643 -8.98141,-6.30297 -2.65253,-2.49168 -6.14793,-3.58439 -9.79052,-3.13563 -4.26846,0.41997 -7.93742,-2.4942 -9.2807,-6.4035 -3.67775,-8.15293 -1.09225,-18.2525 -6.385968,-25.78948 -2.61913,-3.14234 -6.37379,-5.71654 -10.4386,-6.40351 l -0.55148,0.10505 -0.18536,0.0353 z"
         id="path3098"
         inkscape:connector-curvature="0" />
      <path
         style="fill:#333333;fill-opacity:1;fill-rule:nonzero;stroke:none"
         d="m 206.80416,-85.576 c -1.79997,2.96841 1.78743,5.83774 2.59652,8.66758 13.19315,25.28852 26.29551,50.65746 40.22804,75.52541 1.24213,2.68601 5.27191,2.43114 5.66667,-0.70176 8.40769,-20.4504 16.6936,-41.00485 24.01755,-61.87719 -0.03,-3.68415 -5.15119,-3.58069 -7.63344,-5.18812 -3.04896,-0.56686 -6.73267,-4.34664 -9.47183,-1.81188 -1.68058,4.07079 -4.91095,8.68029 -9.96491,7.7193 -4.55533,-0.66358 -5.62888,-6.22141 -8.82456,-8.59649 -5.24614,0.49735 -10.09449,4.99425 -15.50877,3.73684 -5.29354,-1.62002 -5.49299,-7.82247 -8.36842,-11.57895 -3.22044,-2.20319 -7.12577,-3.37198 -10.03509,-6.07018 -0.93869,-0.62901 -1.78434,-0.29322 -2.70176,0.17544 z"
         id="path3100"
         inkscape:connector-curvature="0" />
      <path
         style="fill:#333333;fill-opacity:1;fill-rule:nonzero;stroke:none"
         d="m 415.73399,-195.52337 c -4.48555,1.20507 -7.11996,5.71022 -10.47369,8.5965 -2.1115,7.99112 -0.074,17.24977 -4.42105,24.68421 -2.28721,3.5117 -6.41577,5.47199 -10.59649,4.77193 -5.12561,-0.37577 -8.32191,4.44464 -12.87331,5.9492 -4.78884,1.16023 -2.6359,6.5782 -3.0916,10.08588 0.15364,73.60677 -0.41612,147.22098 0.71299,220.82178 -0.62825,4.65904 4.96991,3.41136 7.97122,3.70454 17.0394,0.10133 34.09142,0.12265 51.12281,-0.35088 3.39556,-1.46182 1.07192,-6.01937 1.55415,-8.82132 -4.07591,-78.36512 -8.7308,-156.70155 -13.70986,-235.01429 -1.01787,-10.89844 -0.97926,-21.99714 -3.19517,-32.72579 -0.46794,-1.11413 -1.74001,-1.89838 -3,-1.70176 z"
         id="path3102"
         inkscape:connector-curvature="0" />
      <path
         style="fill:#ffffff;fill-opacity:1;fill-rule:nonzero;stroke:none"
         d="m 273.26162,-182.7477 c -11.265,0.93421 -22.57771,1.32621 -33.83989,0.34221 -3.21788,0.0229 -6.60079,-0.70674 -9.71541,0.0424 -0.67707,3.11334 -3.01118,5.62079 -3.62237,8.72099 1.41507,5.4526 0.90614,11.31055 1.58789,16.90853 1.92267,4.2887 4.92824,8.15558 6.02901,12.74033 -0.1306,5.40131 -0.20907,10.93265 1.02965,16.22624 1.00784,4.5569 -0.65615,9.23009 -3.9077,12.54184 -2.98466,3.45191 -6.57717,6.72763 -11.20206,7.55488 -4.40337,1.80093 -8.09336,5.86975 -9.16757,10.51976 -0.57952,4.75997 1.09862,10.39601 5.92977,12.28133 1.06888,0.7579 3.14343,1.29251 3.27502,-0.58305 0.61838,-5.33079 2.89964,-11.39012 8.12552,-13.62111 4.42849,-0.48569 9.14622,2.07205 11.85955,5.52039 1.11279,1.77121 2.15765,4.72531 0.59546,6.4508 -1.87353,1.15517 -3.53804,-0.97091 -3.85808,-2.72918 -1.20381,-2.97945 -4.51058,-5.38899 -7.74095,-4.98697 -3.34498,1.77529 -4.75124,5.91447 -4.3667,9.53974 0.0356,4.79152 -0.464,10.78233 3.72162,14.09252 2.76134,1.33964 5.65036,-1.0575 8.32401,-1.63751 3.45302,-1.16245 7.41286,-3.00745 8.08831,-6.97183 1.62562,-9.32867 0.38708,-18.88184 0.31526,-28.29235 -0.56754,-2.36752 0.42381,-4.30042 1.84455,-6.12075 3.18584,-4.46582 5.14359,-10.30499 3.52185,-15.70464 -3.03874,-5.94097 -8.08015,-10.65534 -10.68103,-16.78448 -1.06005,-6.69472 0.21704,-13.64446 2.31646,-20.06133 1.60947,-3.94121 3.33115,-8.53428 7.2853,-10.6544 1.41318,-0.33138 0.61285,2.07583 0.43419,2.71678 -3.25869,7.91175 -6.30021,16.14369 -6.63688,24.78595 1.03572,4.26634 4.3718,7.53314 6.6995,11.14889 1.34227,1.40653 2.1432,3.69744 4.05597,4.37024 2.48562,-1.38552 3.71687,-4.42425 5.57045,-6.54632 2.22984,-3.53073 5.95224,-6.99836 4.88729,-11.57794 -0.706,-7.11344 -3.06756,-13.89477 -5.79332,-20.43166 -0.16914,-1.38287 -1.70616,-3.36054 -0.459,-4.54037 2.40511,0.47658 3.66216,3.23052 4.96216,5.0738 3.91203,6.96979 5.26979,15.18144 5.34672,23.0492 -0.83352,6.26084 -5.99718,10.71689 -8.98597,16.01528 -2.84425,3.9443 -4.25985,9.3914 -1.73442,13.85512 1.4371,3.07411 3.85466,5.76202 5.13959,8.7965 -0.44856,9.89828 -1.54864,19.89587 -0.33657,29.77359 1.14882,5.70631 7.2958,7.74953 12.12242,9.39841 2.20753,0.98226 5.53904,1.31732 6.52287,-1.49618 2.5343,-5.28613 2.57109,-11.6595 1.02964,-17.21867 -0.80261,-2.37652 -3.04572,-5.79993 -5.96698,-4.30467 -3.40941,0.81208 -5.63911,3.85804 -6.36397,7.1331 -1.00352,1.48694 -3.77328,0.26689 -3.56034,-1.55068 0.005,-5.69498 5.9211,-9.3828 10.96636,-10.22203 4.30624,-0.88913 7.01577,3.63419 8.63414,6.88499 1.44228,2.32149 1.15039,5.36124 2.61754,7.59209 2.38862,1.04015 4.66823,-1.50789 6.11585,-3.13856 3.75838,-4.64209 3.03362,-11.91069 -1.41421,-15.86649 -2.15191,-2.50902 -5.02308,-4.1823 -8.21236,-4.93734 -5.35129,-2.16552 -9.64754,-6.78414 -11.84714,-12.05803 -1.87967,-5.90635 0.98078,-11.98259 0.44659,-18.03742 0.24405,-3.16901 -1.12692,-6.79389 1.3824,-9.31121 3.09641,-4.05109 4.89978,-8.92991 5.00212,-14.02195 0.25245,-3.91595 0.57773,-7.93225 1.36884,-11.68724 -0.99566,-2.88949 -3.12291,-5.3175 -3.49831,-8.46047 -0.74854,-1.50593 -2.9502,-0.30397 -4.24264,-0.52103 z"
         id="path3150"
         inkscape:connector-curvature="0" />
      <path
         style="fill:#ffffff;fill-opacity:1;fill-rule:nonzero;stroke:none"
         d="m 253.21452,-115.47331 c -2.33392,0.90654 -2.96679,3.89131 -3.89529,5.9794 -1.48025,7.53626 0.79694,15.19552 0.38456,22.78868 0.16249,4.15554 -1.72507,8.08127 -2.25778,12.10766 1.32835,2.81266 3.20275,5.58665 5.57002,7.59209 2.20791,-0.18035 3.18879,-2.97161 4.63961,-4.40391 1.79119,-1.86322 1.89139,-4.50033 0.98596,-6.82407 -2.64282,-9.64944 -0.0413,-19.65133 -0.72275,-29.45889 -0.3159,-2.92857 -1.41424,-6.50253 -4.29495,-7.78096 -0.1358,-0.0173 -0.27359,-0.0173 -0.40938,0 z"
         id="path3152"
         inkscape:connector-curvature="0" />
      <path
         style="fill:#ffffff;fill-opacity:1;fill-rule:nonzero;stroke:none"
         d="m 290.5051,-133.17579 c -2.72745,-0.0599 -7.31238,2.05204 -5.71888,5.32191 1.36624,1.34625 4.15755,-0.3085 5.17304,1.45143 -0.38785,4.05917 -5.91404,5.24004 -8.84504,3.0021 -1.38248,-0.72019 -2.68939,-3.63808 -4.3791,-2.09651 -1.1411,2.14738 -0.68719,4.84533 1.377,6.25232 2.59361,2.23213 4.97596,4.94553 7.91463,6.61206 5.62905,-2.29649 11.81887,-6.75642 11.79752,-13.49705 0.0664,-3.9341 -3.41553,-7.24004 -7.31917,-7.04626 z"
         id="path3154"
         inkscape:connector-curvature="0" />
      <path
         style="fill:#ffffff;fill-opacity:1;fill-rule:nonzero;stroke:none"
         d="m 285.27003,-162.53933 c -1.53784,2.02139 -1.2277,5.08495 -2.39424,7.35639 -1.78852,5.015 -5.0058,9.67179 -4.98877,15.19467 -0.0912,3.30564 -1.11085,6.7965 -0.34555,10.01307 1.2758,1.73981 2.94986,-0.52747 3.38667,-1.79878 2.19528,-3.61978 6.35318,-6.27489 10.71825,-5.60723 3.52409,-0.29352 6.23891,2.09868 8.62174,4.36669 1.29325,1.33084 2.94644,-0.42558 2.20816,-1.88562 -2.16218,-7.93287 -5.39378,-15.81284 -11.00923,-21.94005 -1.88368,-1.88676 -3.25762,-4.71764 -5.75044,-5.81079 l -0.38512,0.0963 -0.0615,0.0154 z"
         id="path3156"
         inkscape:connector-curvature="0" />
      <path
         style="fill:#ffffff;fill-opacity:1;fill-rule:nonzero;stroke:none"
         d="m 221.18382,-162.58895 c -3.38005,2.59349 -6.13711,6.01478 -8.60933,9.46531 -3.60681,5.7112 -6.78595,11.97943 -7.87742,18.6825 0.72221,2.2638 2.98872,0.16109 4.09377,-0.66989 3.54793,-2.55835 8.4767,-2.55994 12.51703,-1.25294 3.16115,1.20515 4.82916,4.30422 6.28953,7.07107 1.68522,1.43951 2.76945,-1.27048 2.27019,-2.64235 -0.43574,-6.45732 -0.901,-13.07856 -3.90293,-18.94397 -1.61779,-3.5342 -2.88284,-7.19835 -3.45346,-11.02743 -0.23797,-0.59515 -0.73548,-0.73267 -1.32738,-0.6823 z"
         id="path3160"
         inkscape:connector-curvature="0" />
      <path
         style="fill:#ffffff;fill-opacity:1;fill-rule:nonzero;stroke:none"
         d="m 216.56902,-133.00211 c -3.92632,-0.2464 -7.53444,3.04879 -7.20753,7.05866 -0.31862,6.04126 5.1183,9.93952 9.76304,12.62868 2.15542,1.97463 3.95432,-1.09039 5.49558,-2.28259 2.13044,-2.42262 5.29973,-4.31202 6.40118,-7.44323 -0.19354,-1.42406 -0.2773,-4.6473 -2.50589,-4.03175 -1.57175,1.08413 -1.40512,3.6255 -3.49832,4.18061 -2.73774,1.29597 -7.29758,0.4151 -8.0759,-2.87804 1.17686,-2.03061 5.07962,-0.31761 5.80572,-3.03932 -0.0453,-2.73389 -3.2015,-4.64942 -5.78091,-4.20543 l -0.39678,0.0124 -1.9e-4,1e-5 z"
         id="path3162"
         inkscape:connector-curvature="0" />
      <path
         style="fill:#ffffff;fill-opacity:1;fill-rule:nonzero;stroke:none"
         d="m 337.69517,-216.4159 c -6.65758,2.97566 -11.29398,9.17461 -14.61354,15.46951 -3.23835,5.50295 -7.44852,10.31492 -11.89676,14.88646 -5.15879,-0.34141 -10.67128,0.82857 -15.55635,-1.21573 -3.28836,-1.80978 -4.82934,-5.41795 -7.20753,-8.08831 -2.29254,-0.77713 -2.04853,2.51332 -2.48107,3.9077 -0.56208,3.05808 -3.26924,5.20368 -4.19302,8.08831 -0.0197,3.58275 3.60771,5.7429 5.79178,8.1169 5.13913,4.24846 10.52698,8.39317 13.7715,14.33684 4.58489,7.6722 9.21291,15.53519 11.71068,24.16568 0.115,1.77023 0.8622,4.76346 3.26262,3.77124 5.06747,-2.36945 8.65522,-7.1691 11.23946,-11.99312 1.09098,-2.44377 2.46295,-5.54816 1.27757,-8.16563 -2.03861,-2.16237 -5.15949,-0.32382 -6.4632,1.72435 -1.62999,1.56009 -2.42074,4.93979 -4.91253,5.08621 -2.02363,-0.71698 -1.00948,-3.69335 -0.38457,-5.13583 1.26255,-2.86004 3.74326,-4.97123 5.37153,-7.53007 -0.12182,-2.37887 -2.27427,-4.27547 -3.18818,-6.42599 -2.30923,-3.6077 -3.68265,-7.99866 -2.27713,-12.21117 1.5667,-6.25784 2.89493,-13.09378 7.67347,-17.78504 5.06779,-6.15766 11.58683,-11.55004 14.47708,-19.16632 0.31224,-0.8875 -0.27857,-2.16471 -1.40181,-1.83599 z"
         id="path3164"
         inkscape:connector-curvature="0" />
      <path
         style="fill:#ffffff;fill-opacity:1;fill-rule:nonzero;stroke:none"
         d="m 168.67184,-216.60198 c -2.14833,0.8992 -0.16903,3.42973 0.57065,4.70164 5.00435,8.06479 12.23048,14.50323 17.04499,22.66463 2.2787,5.31139 4.20973,11.08342 4.3667,16.87132 -0.60054,4.9631 -4.57757,8.73773 -6.25232,13.24895 2.26011,3.71356 6.20476,7.01724 6.38877,11.58662 -0.69156,1.73157 -3.24712,1.12656 -3.79604,-0.48381 -1.83334,-2.3203 -3.39098,-6.3816 -6.9098,-6.17788 -3.27662,0.91863 -2.51512,5.04044 -1.41421,7.38121 2.35953,5.35232 6.22015,10.20584 11.0656,13.48465 1.6674,1.18189 4.15488,0.12231 4.06896,-2.03449 1.88337,-8.16671 6.3773,-15.48745 10.20356,-22.89668 3.13844,-6.44131 8.16014,-11.71276 13.99662,-15.74915 2.81506,-2.54607 6.84531,-4.9935 7.24747,-9.1397 -0.7175,-3.48529 -4.79901,-5.6 -4.34189,-9.47771 0.38134,-1.47414 -0.64678,-4.56138 -2.43145,-2.75399 -2.59698,3.33231 -4.50314,8.21743 -9.22961,8.83263 -4.42992,0.78753 -8.95851,0.3719 -13.44743,0.48381 -5.49434,-5.70288 -10.4206,-11.94177 -14.20525,-18.90649 -3.20443,-4.78223 -7.26864,-9.53909 -12.72684,-11.66037 l -0.19848,0.0248 z"
         id="path3166"
         inkscape:connector-curvature="0" />
      <path
         style="fill:#ffffff;fill-opacity:1;fill-rule:nonzero;stroke:none"
         d="m 236.83941,-213.53785 c -2.76136,0.38488 -5.21991,2.46332 -6.76093,4.70164 -0.48875,2.02641 2.18158,1.92768 3.26944,1.05407 2.55124,-1.09188 5.50743,-1.57737 7.73413,-3.27464 0.92776,-2.30192 -2.86859,-2.49048 -4.24264,-2.48107 z"
         id="path3168"
         inkscape:connector-curvature="0" />
      <path
         style="fill:#ffffff;fill-opacity:1;fill-rule:nonzero;stroke:none"
         d="m 269.54,-213.56266 c -1.57523,-0.21594 -4.44963,1.18949 -2.85324,2.98969 2.83762,1.48757 6.11206,3.05942 9.35379,2.49963 1.60826,-1.49242 -1.39871,-2.91712 -2.45639,-4.02549 -1.14873,-0.91737 -2.5128,-1.67989 -4.04416,-1.46383 z"
         id="path3170"
         inkscape:connector-curvature="0" />
      <path
         style="fill:#ffffff;fill-opacity:1;fill-rule:nonzero;stroke:none"
         d="m 270.2347,-234.87511 c -3.18456,0.55005 -6.88352,2.07007 -8.39844,5.04899 -0.30652,2.30396 2.9737,1.92198 4.42872,2.25778 3.81603,0.11955 7.40869,1.21902 10.92914,2.58032 2.25937,-0.80544 0.009,-3.31152 -0.57065,-4.65202 -1.5507,-2.16406 -3.45582,-5.09813 -6.38877,-5.23507 z"
         id="path3172"
         inkscape:connector-curvature="0" />
      <path
         style="fill:#ffffff;fill-opacity:1;fill-rule:nonzero;stroke:none"
         d="m 287.60224,-216.60198 c -2.20971,0.89208 -0.62854,3.80779 -0.39698,5.47077 2.21671,6.68615 4.70669,13.48472 8.84504,19.22834 0.95962,1.54774 4.13259,1.29089 3.32464,-0.94281 -2.43596,-7.01713 -4.63346,-14.19637 -7.76576,-20.91547 -0.90332,-1.32485 -2.21862,-2.98711 -4.00694,-2.84083 z"
         id="path3174"
         inkscape:connector-curvature="0" />
      <path
         style="fill:#ffffff;fill-opacity:1;fill-rule:nonzero;stroke:none"
         d="m 236.41763,-234.72625 c -3.54486,0.47621 -5.24997,4.27061 -7.13351,6.86878 -1.0875,0.93073 -0.93954,3.44249 0.91841,2.74539 4.31647,-2.31186 9.36051,-2.00545 14.03049,-3.11375 1.96224,-0.86586 -0.0474,-3.07266 -1.11648,-3.82085 -1.82154,-1.64235 -4.19927,-2.81456 -6.69891,-2.67957 z"
         id="path3176"
         inkscape:connector-curvature="0" />
      <path
         style="fill:#ffffff;fill-opacity:1;fill-rule:nonzero;stroke:none"
         d="m 218.8392,-216.60198 c -3.09138,1.28171 -4.0976,5.0684 -5.42246,7.85616 -2.09804,5.56745 -4.44604,11.07252 -6.04011,16.80574 0.8793,2.25315 3.37675,0.0493 4.16821,-1.19092 4.32392,-6.29705 7.26909,-13.64924 8.86985,-21.11396 0.27087,-1.0883 -0.1983,-2.56718 -1.57549,-2.35702 z"
         id="path3178"
         inkscape:connector-curvature="0" />
      <path
         style="fill:#ffffff;fill-opacity:1;fill-rule:nonzero;stroke:none"
         d="m 197.03054,-218.09063 c -1.75019,0.47929 -4.65506,-0.49464 -5.5328,1.3894 0.19518,3.62131 -0.38804,7.39641 0.28971,10.92419 0.95169,2.15122 2.41585,4.26254 2.92329,6.53019 -0.83105,1.15975 -2.63771,2.42406 -1.43903,4.00694 1.7035,2.73425 4.69093,5.21578 7.93945,5.49558 1.85872,-1.89834 2.56584,-5.84526 -0.33495,-7.20753 -1.76174,-0.9074 -4.05401,-3.34344 -2.23297,-5.25988 1.01505,-1.7066 2.88935,-0.3094 3.88289,0.63267 1.68539,1.18268 2.48477,-1.22316 2.15853,-2.5431 -0.0473,-4.71616 -1.2544,-9.85827 -4.60239,-13.31097 -0.89709,-0.62119 -2.00127,-0.709 -3.05173,-0.65749 z"
         id="path3180"
         inkscape:connector-curvature="0" />
      <path
         style="fill:#ffffff;fill-opacity:1;fill-rule:nonzero;stroke:none"
         d="m 310.42814,-218.0162 c -4.05985,-0.18904 -6.64567,3.67951 -7.24474,7.28196 -0.58113,3.07541 -1.23542,6.27861 -0.98003,9.40328 1.99693,2.01971 3.53572,-2.86088 5.69407,-1.48864 1.88429,0.96669 0.30389,4.74929 2.97729,4.36669 1.69603,-1.11382 1.91529,-3.53216 3.2254,-5.02418 2.52758,-4.09289 1.48541,-9.21794 1.01091,-13.66479 -0.99177,-1.07412 -3.21701,-0.71552 -4.6829,-0.87432 z"
         id="path3182"
         inkscape:connector-curvature="0" />
      <path
         style="fill:#ffffff;fill-opacity:1;fill-rule:nonzero;stroke:none"
         d="m 317.69769,-224.82675 c -1.4364,-0.1025 -4.28325,0.90226 -2.94007,2.74159 3.35228,1.8586 5.27076,5.63328 5.57001,9.35366 0.95552,2.00908 3.45517,0.0925 2.9773,-1.63751 0.15861,-3.6185 0.22852,-8.93614 -3.94491,-10.29647 -0.54119,-0.14492 -1.10333,-0.20657 -1.66233,-0.16127 z"
         id="path3184"
         inkscape:connector-curvature="0" />
      <path
         style="fill:#ffffff;fill-opacity:1;fill-rule:nonzero;stroke:none"
         d="m 309.47293,-199.37091 c -1.32107,0.45439 -2.08193,1.94127 -3.42389,2.56792 -2.57496,1.18227 -2.38975,5.17201 0.0868,6.25231 3.48111,0.98085 5.98,-2.42421 7.72855,-4.90013 1.20344,-2.56898 -2.42572,-4.00272 -4.3915,-3.9201 z"
         id="path3186"
         inkscape:connector-curvature="0" />
      <path
         style="fill:#ffffff;fill-opacity:1;fill-rule:nonzero;stroke:none"
         d="m 224.65733,-208.05467 c -1.73724,0.8343 -2.01392,3.22721 -2.49348,4.91253 0.34593,2.146 2.79021,0.7509 3.52312,-0.38457 1.70827,-1.32272 1.46929,-4.46677 -1.02964,-4.52796 z"
         id="path3188"
         inkscape:connector-curvature="0" />
      <path
         style="fill:#ffffff;fill-opacity:1;fill-rule:nonzero;stroke:none"
         d="m 281.80892,-208.06708 c -2.18602,0.50317 -2.02771,3.23518 -0.54583,4.45353 0.56139,1.35926 3.12166,2.61087 3.44869,0.459 -0.0452,-1.74373 -0.73903,-4.84564 -2.90286,-4.91253 z"
         id="path3190"
         inkscape:connector-curvature="0" />
      <path
         style="fill:#ffffff;fill-opacity:1;fill-rule:nonzero;stroke:none"
         d="m 120.92352,-303.93587 c -1.45566,0.22641 -4.79047,-0.5577 -4.32948,1.88561 2.99699,8.7701 5.96185,17.59729 9.78785,26.0389 3.39962,6.19227 9.30647,10.81748 11.72309,17.52881 1.90694,8.33001 1.03053,16.98025 1.57624,25.46745 0.51753,6.24952 -0.21272,13.12552 3.11299,18.72052 1.82598,2.38825 5.36979,1.74486 7.99124,2.42597 3.16099,0.77951 7.14249,0.22596 9.56238,2.69745 3.53223,5.26508 1.76262,11.87519 0.0744,17.44197 0.7138,2.80388 4.47066,4.08478 5.06139,6.99663 1.53562,1.67809 3.56411,-0.8735 5.43356,-0.4714 3.93936,-0.41592 6.54122,3.60214 7.79058,6.82296 0.4225,1.55963 -1.03785,4.54433 -2.92767,3.60997 -1.38823,-1.85252 -1.49672,-5.61378 -4.47834,-5.73129 -2.57815,0.44107 -1.68798,3.90249 -1.29016,5.68166 1.67803,4.54735 4.1309,9.43056 8.46047,12.00841 2.48809,0.71698 4.0008,-2.36594 5.27229,-3.99453 1.39707,-2.42981 3.92648,-5.05067 2.60351,-8.06592 -1.34687,-4.65023 -2.04715,-9.63707 -4.32786,-13.94123 -4.71152,-6.18204 -10.85736,-11.29677 -14.61354,-18.19869 -4.88726,-8.60368 -7.77261,-18.15639 -12.40562,-26.89197 -2.76026,-6.32338 -6.63659,-12.01969 -9.32861,-18.32565 -2.22387,-6.53763 -4.63121,-13.01778 -7.59209,-19.25315 -2.3089,-7.99804 -3.23019,-16.32046 -5.96011,-24.19403 -1.01933,-2.6852 -1.3441,-5.7669 -2.86012,-8.18402 -2.74575,-0.21902 -5.57022,-0.0661 -8.33642,-0.0744 z"
         id="path3196"
         inkscape:connector-curvature="0" />
      <path
         style="fill:#ffffff;fill-opacity:1;fill-rule:nonzero;stroke:none"
         d="m 130.74858,-261.3482 c -1.80466,1.1642 -0.77329,4.0706 -1.00319,5.92934 0.51652,5.83834 0.0722,11.68563 -1.86245,17.23151 -1.64673,6.47883 -4.91506,13.31495 -2.3485,20.0446 3.46987,11.37355 7.10489,22.794 12.12394,33.58387 3.33881,5.92153 7.39262,12.2004 13.70795,15.27102 1.59543,0.97766 3.47525,0.79594 4.6148,-0.76913 3.8383,-3.26306 6.59276,-8.66598 5.30951,-13.74516 -1.10141,-2.16883 -4.36802,-2.7043 -6.40118,-1.836 -0.89925,2.24783 2.47882,3.23964 2.97729,5.24748 0.88814,2.17545 -1.69947,3.566 -3.51072,2.75399 -4.24999,-1.00022 -7.5176,-5.94944 -5.5204,-10.04836 1.62726,-2.15477 5.20688,-1.92334 6.50042,-4.6148 1.88634,-3.55702 3.81664,-7.75485 2.94008,-11.85954 -0.65262,-2.81147 -3.66389,-3.42222 -6.14067,-3.27503 -3.87208,-0.1098 -8.03978,0.0128 -11.09041,-2.7788 -4.58022,-3.66683 -5.12361,-10.19224 -5.45837,-15.65559 -0.59908,-9.9849 0.36615,-20.06994 -0.95521,-29.99622 -0.66107,-1.99833 -1.35808,-4.84172 -3.54794,-5.57001 l -0.33495,0.0868 z"
         id="path3198"
         inkscape:connector-curvature="0" />
      <path
         style="fill:#ffffff;fill-opacity:1;fill-rule:nonzero;stroke:none"
         d="m 121.19644,-237.66632 c -2.25223,1.33161 -2.40642,4.54609 -3.59911,6.69489 -2.43384,6.78826 -4.78339,13.64734 -6.74698,20.59695 -0.47752,1.76984 -0.82292,4.65325 1.71194,4.94975 1.90927,1.00862 1.63352,3.87709 2.67957,5.5328 3.12885,6.883 7.40462,13.21752 10.00686,20.36208 2.04322,4.35944 3.9479,8.98379 7.03813,12.72307 2.27012,0.88156 2.47039,-2.57146 2.43297,-4.0315 0.10426,-4.4562 0.10169,-9.07911 -2.21391,-13.05085 -2.75074,-5.92955 -5.79665,-11.7534 -6.88426,-18.26224 -1.64018,-7.77815 -5.1662,-15.35681 -5.10751,-23.37008 0.0487,-3.90228 2.1775,-7.58242 1.98487,-11.46258 -0.20471,-0.46428 -0.79205,-0.83584 -1.30257,-0.68229 z"
         id="path3200"
         inkscape:connector-curvature="0" />
      <path
         style="fill:#ffffff;fill-opacity:1;fill-rule:nonzero;stroke:none"
         d="m 109.10119,-200.17726 c -1.91507,1.42992 -1.68682,4.51416 -2.41115,6.66617 -0.89479,3.86515 -1.19617,7.92052 0.15337,11.7062 0.54746,1.90926 -1.29167,3.26831 -0.83116,5.23508 0.19892,4.89211 0.61292,10.43848 3.83327,14.32821 2.26095,2.04606 6.09163,1.93577 8.57212,0.40938 2.00617,-2.54188 1.09617,-6.16797 1.07926,-9.16758 0.14768,-1.81618 -1.98434,-3.41063 -3.36186,-1.77397 -1.1468,1.03895 -2.95039,2.72969 -4.32947,0.99243 -1.52392,-0.74641 -0.55328,-2.22888 0.28532,-3.0021 1.90717,-2.24712 4.57554,-3.51999 7.35639,-4.16821 1.79837,-1.79903 -0.43257,-4.3893 -1.14036,-6.2313 -2.62053,-4.85365 -5.71851,-9.49649 -7.90316,-14.54771 -0.32905,-0.40029 -0.7905,-0.57654 -1.30257,-0.4466 z"
         id="path3202"
         inkscape:connector-curvature="0" />
      <path
         style="fill:#ffffff;fill-opacity:1;fill-rule:nonzero;stroke:none"
         d="m 125.40187,-166.44702 c -1.78948,1.35566 -1.57967,4.15618 -1.68714,6.21509 0.81268,2.85552 3.97764,4.14446 6.22751,5.73129 1.64953,0.93683 2.67869,-1.35392 1.52586,-2.50589 -1.60417,-3.11102 -2.69847,-6.64629 -5.04899,-9.27922 -0.28716,-0.25927 -0.6742,-0.17388 -1.01724,-0.16127 z"
         id="path3204"
         inkscape:connector-curvature="0" />
      <path
         style="fill:#ffffff;fill-opacity:1;fill-rule:nonzero;stroke:none"
         d="m 378.08709,-303.94828 c -1.98958,1.06288 -1.5199,4.18241 -2.51726,6.05309 -3.53963,10.83558 -4.73858,22.48141 -9.72762,32.7961 -2.51205,5.42519 -3.27019,11.58452 -6.28354,16.76813 -7.76406,12.58661 -12.95653,26.4829 -18.84899,39.97856 -4.10709,7.43992 -11.22837,12.60732 -15.82927,19.66253 -2.27624,4.68002 -3.65623,9.88964 -3.98213,15.08494 0.22762,4.18226 2.36065,8.54039 5.94218,10.84231 2.24443,0.46614 3.88727,-2.14718 5.42115,-3.4487 3.23049,-3.67045 6.91391,-9.00409 4.32014,-13.98938 -1.3528,-2.21509 -3.12365,0.92106 -3.92317,2.17946 -0.48585,1.34572 -0.92026,3.76164 -2.91526,2.97729 -2.37653,-0.66925 -1.71667,-3.62015 -0.6947,-5.19786 1.28514,-2.62478 3.69505,-5.57997 6.95942,-4.87531 1.9069,-0.22436 4.47753,1.66379 5.84293,-0.24811 0.70245,-3.0942 5.61953,-4.58912 4.23024,-8.2868 -1.13267,-4.44984 -2.09402,-9.38271 -0.6823,-13.89402 1.47914,-3.43757 5.53489,-4.18047 8.90707,-3.98213 3.70235,-0.46611 8.78828,-0.0832 10.66863,-4.09378 2.99794,-6.80355 2.37853,-14.61014 2.39834,-21.92004 -0.074,-8.49399 -1.45653,-18.05351 3.85397,-25.35687 4.51167,-6.41687 9.99096,-12.46093 12.3727,-20.14116 2.46875,-6.49661 5.0127,-12.95815 7.19059,-19.55606 -0.37927,-2.13815 -3.4242,-0.98026 -4.97456,-1.35219 -2.57615,-0.0206 -5.15232,-0.003 -7.72856,0 z"
         id="path3206"
         inkscape:connector-curvature="0" />
      <path
         style="fill:#ffffff;fill-opacity:1;fill-rule:nonzero;stroke:none"
         d="m 375.63083,-261.45984 c -2.08295,1.21813 -2.65023,4.06521 -3.32464,6.2275 -1.54309,11.1958 -0.0981,22.65648 -1.24408,33.88793 -1.04005,5.44723 -3.49866,12.0662 -9.51139,13.50063 -3.73888,0.68953 -7.84862,-0.15096 -11.37574,1.41421 -2.84384,2.90788 -1.26423,7.43948 -0.13645,10.79268 1.03179,2.82132 2.66157,6.13922 6.07863,6.32675 3.50688,1.68245 3.25677,6.78643 0.53343,9.13036 -1.666,1.49656 -4.0979,3.38567 -6.43839,2.5431 -2.45611,-1.50161 -0.27513,-5.94542 2.39424,-5.68166 1.94655,-0.4135 0.91637,-2.94258 -0.81876,-2.66716 -2.55458,-0.46021 -6.39525,0.48517 -6.2399,3.72161 0.002,4.89604 1.6662,10.94017 6.61207,12.97603 4.53481,1.19766 7.97399,-3.13787 10.77598,-6.01306 8.5649,-9.31731 11.45855,-22.00845 15.65709,-33.59569 1.40108,-5.05766 3.70942,-9.98562 4.07176,-15.24785 -1.1829,-9.69407 -6.56528,-18.74028 -5.54521,-28.73086 -0.17513,-2.70652 0.83655,-5.80138 -0.45899,-8.2868 -0.26657,-0.25611 -0.66941,-0.37344 -1.02965,-0.29772 z"
         id="path3208"
         inkscape:connector-curvature="0" />
      <path
         style="fill:#ffffff;fill-opacity:1;fill-rule:nonzero;stroke:none"
         d="m 386.3987,-234.46573 c -2.27107,0.84336 -0.43684,3.70687 -0.39697,5.38393 1.06605,5.5662 0.0765,11.19486 -1.83636,16.48251 -1.86636,6.02554 -3.52076,12.11341 -4.58963,18.28978 -2.25621,4.62508 -5.30869,9.01103 -6.35037,14.17945 -1.02541,4.34813 -1.58202,9.12713 -0.16246,13.43493 1.82494,1.61817 3.00083,-1.69034 3.82086,-2.86564 4.73815,-8.20105 7.31431,-17.50251 12.47982,-25.40623 1.91757,-3.0136 2.54391,-6.68043 4.35429,-9.6886 1.58603,-1.08419 3.77822,-2.47228 2.79121,-4.75126 -2.40541,-7.92693 -4.85226,-15.91661 -8.18772,-23.49902 -0.41912,-0.69317 -0.93193,-1.72966 -1.92267,-1.55985 z"
         id="path3210"
         inkscape:connector-curvature="0" />
      <path
         style="fill:#ffffff;fill-opacity:1;fill-rule:nonzero;stroke:none"
         d="m 397.31544,-200.28891 c -1.76645,1.0472 -1.60473,3.57408 -2.82843,5.12343 -2.61235,4.9075 -6.21679,9.5183 -7.67893,14.96089 0.19581,2.51217 3.38823,1.21028 4.76366,2.59272 1.74893,1.23184 4.84535,3.38531 3.65959,5.86775 -1.50105,1.96007 -3.7445,-0.54621 -5.22266,-1.27776 -1.86712,-1.24129 -2.95076,1.3143 -2.754,2.82843 0.23017,2.89131 -0.44661,6.51242 1.72435,8.79542 3.42463,1.71439 8.27085,0.44679 9.72582,-3.33705 1.9239,-4.80887 3.331,-10.50459 1.5611,-15.51902 -0.84949,-2.50094 1.28786,-5.05644 0.69668,-7.67904 -0.44541,-4.04142 -0.52672,-8.44054 -2.48108,-12.07044 -0.31088,-0.27119 -0.7598,-0.44858 -1.1661,-0.28533 z"
         id="path3212"
         inkscape:connector-curvature="0" />
      <path
         style="fill:#ffffff;fill-opacity:1;fill-rule:nonzero;stroke:none"
         d="m 380.72944,-166.95564 c -1.94164,1.94661 -2.57583,5.0153 -4.01551,7.3843 -0.32055,1.6121 -2.86223,3.70718 -1.14513,5.15754 2.17496,0.19558 4.0383,-1.69784 5.81813,-2.7664 2.4528,-2.18376 1.60828,-5.98405 1.09167,-8.82023 -0.28221,-0.64316 -1.02998,-1.15076 -1.74916,-0.95521 z"
         id="path3214"
         inkscape:connector-curvature="0" />
      <path
         style="fill:#ffffff;fill-opacity:1;fill-rule:nonzero;stroke:none"
         d="m 116.97861,-283.97561 c -2.13497,1.20022 -1.67692,4.39577 -2.52833,6.40598 -0.55296,3.86505 -2.54163,7.84042 -1.57785,11.7555 2.33634,2.82318 4.31343,5.96741 5.37789,9.5177 2.06894,5.48164 3.14656,11.31751 2.69801,17.12906 0.31942,1.86641 2.63227,1.01242 2.81602,-0.459 2.99841,-8.3923 1.74286,-17.62405 0.32254,-26.21257 -1.30741,-5.97062 -2.7064,-12.16852 -5.70647,-17.504 -0.34318,-0.38472 -0.85364,-0.76058 -1.40181,-0.63267 z"
         id="path3216"
         inkscape:connector-curvature="0" />
      <path
         style="fill:#ffffff;fill-opacity:1;fill-rule:nonzero;stroke:none"
         d="m 112.51267,-258.56939 c -2.10057,0.0549 -2.41327,3.014 -3.53194,4.35948 -2.12058,4.60876 -4.94691,8.88273 -6.97542,13.51667 -1.06055,10.40533 0.11547,21.07011 -2.319798,31.28638 -0.83542,3.86546 -4.21206,6.1985 -7.28196,8.24958 -1.45667,0.78226 -1.00776,2.92008 0.62027,2.89045 2.73386,1.20858 5.0635,3.31443 7.877418,4.29226 2.08911,-0.6522 1.69274,-3.71872 2.56791,-5.35912 3.50963,-13.1691 7.66223,-26.18627 12.46567,-38.94979 2.00128,-6.14963 -0.14921,-12.66355 -2.02034,-18.56156 -0.30757,-0.66322 -0.64072,-1.53058 -1.40181,-1.72435 z"
         id="path3218"
         inkscape:connector-curvature="0" />
      <path
         style="fill:#ffffff;fill-opacity:1;fill-rule:nonzero;stroke:none"
         d="m 94.127902,-273.72877 c -1.88676,0.79827 -1.55656,3.26177 -2.754,4.70164 -1.22286,2.01109 -2.04463,4.41245 -0.84356,6.66169 2.99337,7.79662 4.13734,16.52035 1.26535,24.50063 -0.9112,3.29476 -3.41857,6.74512 -1.60664,10.20011 0.60633,2.37252 2.4763,5.09295 1.22207,7.48997 -1.35639,0.92494 -3.39517,0.2808 -3.59756,-1.47624 -0.28797,-1.92433 -2.16952,-3.75251 -4.11859,-2.54311 -3.08116,1.33125 -5.99684,4.17849 -5.32191,7.8402 0.53174,4.15554 3.00712,8.54729 6.98423,10.22204 3.84111,1.37591 8.53085,-0.22597 10.08223,-4.14846 2.99255,-6.0652 1.83237,-13.10316 2.19066,-19.63265 -0.22539,-9.99327 1.02041,-20.00277 0.21933,-29.97141 -0.60513,-4.44779 -0.96266,-9.0288 -2.3074,-13.31098 -0.3091,-0.45316 -0.88593,-0.66475 -1.41421,-0.53343 z"
         id="path3220"
         inkscape:connector-curvature="0" />
      <path
         style="fill:#ffffff;fill-opacity:1;fill-rule:nonzero;stroke:none"
         d="m 105.72693,-355.4058 c -4.03606,2.49248 -7.951948,5.44262 -11.552588,8.47447 -1.3265,9.82764 -0.55218,19.96469 -0.0451,29.88133 0.91312,15.55884 3.04201,31.00823 6.061038,46.28915 0.87631,4.73628 1.53558,9.54098 2.27403,14.28797 0.85702,1.79495 3.04646,0.61727 3.20059,-0.99243 2.92272,-9.94681 5.1899,-20.16137 6.06375,-30.4799 -0.85812,-7.62083 -3.59189,-14.95733 -4.92212,-22.51745 -0.81704,-4.81151 -2.45614,-9.66968 -2.08444,-14.54996 1.33018,-1.30321 4.48683,-1.17352 4.75126,1.11649 2.63354,6.69946 4.33193,13.84653 6.87042,20.54699 1.93676,0.96987 4.59033,0.0142 6.78781,0.26032 2.0135,-0.3751 4.56418,0.59312 6.2276,-0.77262 0.0326,-7.0268 -4.30371,-12.97433 -7.73453,-18.78354 -5.77932,-9.86926 -10.32721,-20.48467 -13.98729,-31.34661 -0.3373,-0.77125 -0.90334,-1.70269 -1.91043,-1.41421 z"
         id="path3222"
         inkscape:connector-curvature="0" />
      <path
         style="fill:#ffffff;fill-opacity:1;fill-rule:nonzero;stroke:none"
         d="m 76.400612,-288.90055 c -2.77936,1.40646 -3.86455,5.02955 -3.94492,7.97666 0.0882,4.77483 1.4694,10.66811 6.15307,12.92641 2.07785,0.99726 4.82649,-0.0976 4.97456,-2.58032 0.50898,-3.52742 0.34,-7.21163 -0.006,-10.70598 -0.74929,-1.0937 -3.01224,-0.60378 -3.05787,-2.45613 -1.01228,-1.74041 -1.70575,-5.03449 -4.11858,-5.16064 z"
         id="path3224"
         inkscape:connector-curvature="0" />
      <path
         style="fill:#ffffff;fill-opacity:1;fill-rule:nonzero;stroke:none"
         d="m 389.54967,-283.67788 c -2.2625,1.28998 -2.61754,4.45607 -3.66438,6.67741 -3.7865,10.72215 -5.37931,22.38288 -3.95253,33.6897 0.2186,1.41171 1.08543,4.6329 3.03932,3.27502 1.43586,-4.07893 1.12799,-8.65991 2.5431,-12.80235 1.13375,-4.66029 3.23694,-9.03269 6.27713,-12.72793 1.46745,-3.82402 -0.73972,-7.88517 -1.30057,-11.70697 -0.89965,-2.0011 -0.28586,-5.10354 -2.34661,-6.38007 -0.19057,-0.0764 -0.40042,-0.0798 -0.59546,-0.0248 z"
         id="path3226"
         inkscape:connector-curvature="0" />
      <path
         style="fill:#ffffff;fill-opacity:1;fill-rule:nonzero;stroke:none"
         d="m 394.38777,-258.47015 c -2.28045,2.42382 -2.725,6.1013 -3.54794,9.22961 -1.82277,9.30927 3.10717,18.05309 5.79661,26.6754 3.26962,9.09719 5.33082,18.55071 8.13463,27.75941 1.3854,2.08773 3.57376,-0.43032 4.96215,-1.24053 1.8913,-1.64134 4.83381,-1.8211 6.41359,-3.74643 -0.0867,-2.27489 -3.32013,-2.02613 -4.6024,-3.4611 -5.65499,-4.46103 -5.88357,-12.42488 -6.04847,-19.02885 -0.27214,-6.44802 0.0455,-12.97195 -0.34877,-19.37562 -4.10116,-5.01042 -5.75734,-11.65359 -9.66773,-16.78708 -0.38795,-0.18416 -0.69962,-0.23337 -1.09167,-0.0248 z"
         id="path3228"
         inkscape:connector-curvature="0" />
      <path
         style="fill:#ffffff;fill-opacity:1;fill-rule:nonzero;stroke:none"
         d="m 412.31354,-273.38142 c -2.2904,0.31945 -1.21145,3.75456 -1.95511,5.33818 -1.68223,11.26053 -1.10873,22.70972 -1.2105,34.06116 0.28795,7.25183 -0.082,14.65337 1.55291,21.7592 0.89976,4.15835 5.01201,7.28696 9.29164,6.43839 5.94987,-0.99968 9.69057,-7.98219 8.38603,-13.63351 -1.06039,-2.65769 -3.79805,-4.87515 -6.66169,-5.12343 -2.3917,0.17983 -1.9895,3.07437 -3.28742,4.32948 -1.52371,1.14097 -3.61344,0.0762 -3.38667,-1.8484 -0.0285,-3.90493 3.7904,-7.36474 1.81992,-11.34621 -2.73462,-6.88897 -4.60761,-14.45105 -2.5246,-21.79081 0.40367,-3.4465 2.75203,-6.64964 2.54067,-10.15776 -1.00173,-2.65936 -1.96381,-5.78354 -3.88288,-7.80299 -0.23949,0.0162 -0.4327,-0.30736 -0.6823,-0.2233 z"
         id="path3230"
         inkscape:connector-curvature="0" />
      <path
         style="fill:#ffffff;fill-opacity:1;fill-rule:nonzero;stroke:none"
         d="m 429.78032,-288.37952 c -3.13038,0.82943 -3.09006,5.08825 -5.91737,6.45079 -2.5152,2.84895 -1.50429,7.12549 -1.54934,10.60473 -0.17451,2.2043 1.68791,4.15231 3.96839,3.58703 3.8793,-0.0996 6.05531,-3.66373 7.09588,-6.95942 1.5825,-4.07416 2.33617,-9.48467 -1.37699,-12.65349 -0.58921,-0.5703 -1.35056,-1.11726 -2.22057,-1.02964 z"
         id="path3232"
         inkscape:connector-curvature="0" />
      <path
         style="fill:#ffffff;fill-opacity:1;fill-rule:nonzero;stroke:none"
         d="m 399.01497,-351.52292 c -1.88108,1.65767 -1.82245,4.64688 -2.95248,6.82296 -4.01394,10.8383 -9.88082,20.78162 -15.54985,30.79684 -1.52995,3.21864 -3.19412,6.75072 -3.0086,10.35181 2.65288,0.98067 5.77281,0.12146 8.6092,0.43223 1.72539,-0.26745 4.42756,1.1333 5.13596,-1.23858 2.30442,-6.57189 3.80565,-13.50594 6.73613,-19.8238 0.58676,-1.47683 2.48784,-2.82421 3.74642,-1.26535 1.5212,1.35174 0.25832,3.95843 0.24557,5.726 -1.57371,10.37725 -4.96971,20.45745 -6.42345,30.84507 -0.70498,7.73414 2.29729,15.14877 3.42152,22.72584 0.94374,3.23103 1.00619,6.98109 2.97966,9.77626 1.77606,1.34276 2.60391,-1.42397 2.72688,-2.7697 3.38478,-18.7884 7.27408,-37.61614 8.22707,-56.76373 0.46307,-8.21899 0.74846,-16.5685 0.35542,-24.74976 -3.99234,-4.04203 -8.79524,-7.42211 -13.40588,-10.80406 -0.24371,-0.0845 -0.58941,-0.0425 -0.84357,-0.062 z"
         id="path3234"
         inkscape:connector-curvature="0" />
      <path
         style="fill:#ffffff;fill-opacity:1;fill-rule:nonzero;stroke:none"
         d="m 406.23491,-376.90433 c -1.94962,1.23547 -1.74716,4.16394 -2.61981,6.12377 -1.91262,6.65841 -2.96264,13.64828 -5.9275,19.92753 -1.74097,2.83141 -2.05631,6.26474 -3.72162,9.17998 -4.29483,9.88557 -9.66753,19.26045 -14.71278,28.7929 -1.61183,2.90368 -2.09444,6.18667 -2.71678,9.36606 -4.54381,13.18856 -6.45415,27.20689 -12.08944,40.01855 -2.39959,6.58881 -4.51008,13.25938 -8.16322,19.27951 -6.51462,12.14606 -11.45543,25.07799 -17.50932,37.4267 -4.85469,7.45799 -12.78364,12.88751 -16.07738,21.37448 -2.32217,6.29046 -4.08019,14.25283 0.49622,19.98507 1.34611,1.51556 3.11755,4.72585 5.50799,3.11375 4.3978,-3.09752 8.35484,-7.65234 9.36606,-13.07527 0.0767,-2.16606 0.062,-5.71792 -2.50589,-6.30194 -2.77185,0.63043 -3.34569,3.96523 -4.97455,5.80572 -1.78439,0.51258 -1.91566,-2.00254 -1.19092,-3.07653 1.14911,-3.00383 4.05961,-6.41105 7.62376,-5.19373 1.88183,0.35724 4.53968,1.08322 5.51354,-1.19505 1.75688,-2.60122 5.49467,-4.99758 4.23786,-8.61608 -0.75081,-4.35898 -2.00446,-9.08589 -0.44181,-13.36625 1.59083,-3.77083 6.35176,-2.95389 9.63421,-3.5728 3.89032,-0.29727 8.76293,-1.15045 10.09034,-5.47073 2.80185,-7.15655 1.81985,-15.09261 2.13373,-22.61501 0.29624,-7.90995 -1.10023,-16.77068 3.84567,-23.59503 4.94676,-6.94977 10.30959,-13.77025 12.99492,-21.96812 2.41103,-6.40775 4.97515,-12.91442 6.80407,-19.44105 2.67342,-6.82351 4.02024,-14.18967 7.56728,-20.64256 0.72079,-1.54387 2.7008,0.1168 2.09651,1.377 -1.05903,12.05288 -5.69658,23.58185 -6.66169,35.69029 -0.0394,8.54494 2.48625,16.84825 4.23656,25.14382 0.8963,2.37276 0.94886,5.87964 3.5168,7.13498 2.69055,-0.0385 2.6011,-3.71211 3.20816,-5.61108 3.06614,-16.27683 5.93058,-32.63492 7.52656,-49.13282 0.5678,-10.22056 1.30965,-20.53515 0.6038,-30.7664 -1.28518,-5.37374 -0.97158,-11.17388 -1.94934,-16.67568 -1.03447,-6.25145 -1.56689,-12.79083 -4.20373,-18.60523 -0.32268,-0.50294 -0.90526,-0.94883 -1.53826,-0.81875 z"
         id="path3236"
         inkscape:connector-curvature="0" />
      <path
         style="fill:#ffffff;fill-opacity:1;fill-rule:nonzero;stroke:none"
         d="m 100.3678,-376.80509 c -2.225748,1.28662 -2.408308,4.54394 -3.207098,6.81183 -1.97668,7.21231 -2.32229,14.69336 -3.33053,22.0679 -1.66707,6.27292 -0.68131,12.89503 -0.88193,19.32751 0.24015,20.66857 3.26745,41.20529 6.97887,61.47311 0.926378,3.89228 0.663938,8.28723 2.549608,11.84278 1.70668,1.66159 3.66063,-0.69322 3.93251,-2.39424 2.90427,-9.81032 5.32332,-19.91348 5.92977,-30.16989 -0.82581,-8.57532 -3.74822,-16.71318 -5.20853,-25.16674 -0.62234,-3.82229 -1.84948,-7.87009 -1.58962,-11.64003 1.14578,-0.56669 3.11918,-0.54466 3.11375,1.20332 2.57695,6.82987 4.68043,13.91673 7.18272,20.71699 2.34537,8.75354 5.73919,17.23862 9.21719,25.60471 3.72046,8.14859 12.43993,13.92864 13.00085,23.37174 0.99581,11.47373 0.2281,23.13584 2.07169,34.53658 0.63175,3.23364 2.20172,6.96196 5.94218,7.3812 4.31592,1.2318 9.20906,0.62508 13.14971,2.91527 3.33144,3.8958 2.35912,9.62579 1.19329,14.22918 -0.60405,1.83129 -1.14778,4.00763 0.61789,5.37132 1.45473,1.7457 3.14009,3.2495 4.00694,5.30951 2.55073,1.6215 5.46782,-1.57289 8.11312,0.0248 2.42936,1.40406 4.83414,4.14038 4.6148,7.03385 -0.16526,0.66815 -1.14175,2.19303 -1.6251,0.89319 -1.27559,-1.96244 -2.52941,-5.99915 -5.63205,-5.02418 -2.74973,1.49422 -1.43505,5.26075 -0.7071,7.59209 1.84002,4.54364 4.45947,9.52056 9.14276,11.61144 2.46037,0.0313 3.77228,-2.752 5.25989,-4.3791 1.76802,-2.52346 4.08352,-5.45999 2.89045,-8.73339 -1.26975,-4.87791 -2.117,-10.09077 -4.78848,-14.42746 -5.38491,-7.18966 -12.35956,-13.1184 -15.92767,-21.53407 -5.21171,-11.04952 -10.02104,-22.3213 -15.70955,-33.19118 -4.62365,-8.86811 -7.87914,-18.32296 -11.65253,-27.57448 -2.71686,-9.14637 -4.1477,-18.78191 -7.28485,-27.88303 -0.852,-2.43884 -1.95716,-4.72268 -1.90016,-7.34583 -2.08423,-9.09548 -8.32099,-16.41078 -12.11345,-24.78029 -4.31005,-8.05145 -6.87146,-16.8429 -10.73727,-25.06454 -2.21841,-6.35638 -2.92403,-13.18761 -5.27228,-19.47645 -0.27813,-0.49036 -0.78475,-0.69609 -1.33979,-0.53343 z"
         id="path3238"
         inkscape:connector-curvature="0" />
      <path
         style="fill:#000000;fill-opacity:1;fill-rule:nonzero;stroke:none"
         d="m 188.66931,-224.85156 c -3.81518,0.17274 -5.02095,4.65674 -5.03658,7.81539 -0.12483,1.56871 -0.51377,4.82246 1.88562,4.71404 2.24636,-1.20431 1.61613,-4.43202 3.10134,-6.27712 0.57258,-1.66674 2.26783,-2.39507 3.18819,-3.72161 0.56866,-1.8216 -1.71305,-2.6208 -3.13857,-2.5307 z"
         id="path3240"
         inkscape:connector-curvature="0" />
      <path
         style="fill:#ffffff;fill-opacity:1;fill-rule:nonzero;stroke:none"
         d="m 139.20906,-172.43882 c -1.41426,1.80975 -0.65276,4.61066 -1.05167,6.76032 0.1071,2.57451 -0.77455,5.11887 -0.62306,7.64233 2.08331,4.57163 5.58357,8.44785 8.90706,12.20689 3.69624,3.36047 5.17703,8.48035 7.84274,12.58287 2.25021,3.54168 4.43862,7.71642 8.25945,9.74682 4.10094,0.51554 7.53018,-3.48699 7.29436,-7.44323 0.0362,-3.4599 0.70287,-8.0323 -2.49348,-10.32128 -2.80702,-2.06989 -6.82939,2.34537 -4.25504,4.78848 1.05189,1.0347 4.09864,0.58585 3.70921,2.64235 -0.87498,1.75776 -2.53127,3.71591 -4.56519,3.99453 -3.71378,-1.80643 -4.55591,-6.8266 -3.9201,-10.51976 1.54958,-5.92804 11.19956,-7.08714 14.21657,-1.76157 0.55827,1.36428 3.07398,1.91752 3.03932,-0.0248 -1.31005,-4.86487 -2.84281,-10.5846 0.37216,-15.14697 -0.0744,-2.21403 -2.61446,-3.57817 -3.73428,-5.39792 -2.85073,-2.80937 -4.4741,-6.4893 -6.81029,-9.6374 -2.15824,-0.69601 -3.01181,2.4187 -4.34189,3.58515 -2.60231,3.52659 -7.5029,5.29232 -11.5246,3.213 -3.73195,-1.38069 -6.40526,-4.3945 -9.36606,-6.9098 -0.29608,-0.16859 -0.6421,0.041 -0.95521,0 z"
         id="path3246"
         inkscape:connector-curvature="0" />
      <path
         style="fill:#ffffff;fill-opacity:1;fill-rule:nonzero;stroke:none"
         d="m 174.52718,-141.7355 c -2.18457,0.81816 -0.36184,3.47828 -0.76567,5.08589 -0.0226,4.2583 0.72154,8.81295 -1.47971,12.6414 -0.99293,1.95661 0.54668,3.97512 2.45627,4.51556 0.65857,1.04777 1.73227,2.37214 3.11375,1.35219 2.39717,-2.77468 6.22953,-3.862 9.78785,-3.05173 4.37411,0.68613 7.78268,3.9947 9.77544,7.76577 1.398,1.4106 2.67257,-0.7885 2.38183,-2.09651 -0.0342,-5.16646 0.18506,-10.46375 -0.63267,-15.54394 -1.59784,-1.52476 -3.2064,1.35045 -4.88772,1.67472 -4.31131,1.61143 -8.5024,-1.19546 -11.35093,-4.23023 -2.79649,-2.25298 -4.6552,-5.39779 -7.24474,-7.8278 -0.34626,-0.20943 -0.73928,-0.36373 -1.1537,-0.28532 z"
         id="path3248"
         inkscape:connector-curvature="0" />
      <path
         style="fill:#ffffff;fill-opacity:1;fill-rule:nonzero;stroke:none"
         d="m 184.57554,-117.65666 c -3.88231,0.22373 -4.42743,5.07635 -3.98213,8.08831 0.38922,4.7952 2.30785,10.80755 7.66653,11.87195 4.06045,0.45261 9.03032,-1.72691 9.71341,-6.19028 0.51094,-2.21176 1.29343,-4.55203 0.90559,-6.79815 -2.418,-0.97608 -4.46391,2.63423 -6.99663,2.09651 -3.43005,-1.34915 -0.008,-6.01691 -2.79121,-7.93945 -1.32385,-0.85489 -2.95099,-1.2062 -4.51556,-1.12889 z"
         id="path3250"
         inkscape:connector-curvature="0" />
      <path
         style="fill:#ffffff;fill-opacity:1;fill-rule:nonzero;stroke:none"
         d="m 367.46809,-172.92263 c -4.27466,3.02931 -7.84904,8.29677 -13.63352,8.27439 -4.40779,-0.0253 -7.8005,-3.42305 -10.39571,-6.64929 -1.39538,-1.7864 -3.06172,0.21057 -3.65959,1.6003 -2.15807,4.36706 -6.04389,7.542 -8.52249,11.63625 0.21927,2.16994 2.00953,3.97759 1.73675,6.31433 0.38126,6.18878 -2.63362,12.04623 -6.96751,16.36968 -3.19409,3.51698 -7.47825,7.43409 -12.63299,6.1709 -1.90671,-0.17227 -3.03716,-1.97016 -4.73886,-2.46867 -1.98915,0.78697 -0.80936,3.63187 -1.21061,5.29707 0.04,3.94542 -0.25338,7.98997 0.36704,11.87198 1.29715,1.90449 2.881,-0.79043 3.53554,-1.8484 3.87804,-4.9291 12.1806,-7.42731 17.0698,-2.56791 1.04533,0.87922 1.40701,3.86562 3.16338,2.50588 1.0555,-2.18134 3.93851,-3.65656 3.95731,-6.20269 -2.01154,-3.70207 -2.96066,-7.90435 -2.59894,-12.14443 0.0932,-3.99541 1.20499,-9.55783 5.83675,-10.5202 3.85019,-0.85935 8.98873,0.54432 9.87468,4.92494 -0.0234,3.35197 -0.22281,7.38208 -2.72918,9.88709 -2.613,1.34873 -6.57366,-0.98746 -5.59483,-4.04416 1.0071,-1.6739 4.19289,-0.98154 4.35429,-3.42388 0.59616,-3.27091 -4.09474,-5.26534 -6.01661,-2.55551 -2.64693,3.65427 -2.24142,8.87617 -0.65749,12.90159 1.25741,2.64835 4.67277,5.85266 7.65413,3.69681 4.74552,-4.53019 8.31298,-10.31125 10.56938,-16.41232 3.90876,-5.99155 9.44144,-10.79629 13.21346,-16.92328 0.71999,-2.11166 -0.71182,-4.48214 -0.3987,-6.73379 -0.34061,-2.86191 0.41519,-5.99465 -0.62027,-8.69617 -0.3238,-0.0343 -0.61151,-0.41894 -0.95521,-0.26051 z"
         id="path3252"
         inkscape:connector-curvature="0" />
      <path
         style="fill:#ffffff;fill-opacity:1;fill-rule:nonzero;stroke:none"
         d="m 321.77906,-117.7683 c -2.3146,0.11388 -4.93467,1.54831 -4.91253,4.1682 -0.57376,1.45742 0.0125,4.08773 -1.66232,4.85051 -2.4934,0.51686 -4.12448,-2.01793 -6.25231,-2.67956 -2.12,0.57598 -0.79046,3.50326 -0.58305,4.99937 0.80031,3.78267 2.79432,8.38763 7.25715,8.62174 3.27427,0.57681 7.07043,-0.50584 8.37363,-3.85808 1.88361,-4.05926 3.54111,-9.04906 1.77397,-13.41022 -0.79458,-1.3959 -2.26636,-2.81884 -3.99454,-2.69196 z"
         id="path3254"
         inkscape:connector-curvature="0" />
      <path
         style="fill:#333333;fill-opacity:1;fill-rule:nonzero;stroke:none"
         d="m 204.78995,-120.19193 c -0.89946,0.0422 -1.1049,1.17008 -1.21263,1.91973 -0.85076,5.47298 -0.57929,11.11446 -2.10271,16.47125 -0.45406,1.64153 -1.67686,3.1946 -1.27155,4.99006 0.61181,2.59187 2.00545,4.90912 3.157,7.28648 0.81089,1.53186 1.57572,3.09202 2.44713,4.58857 0.53227,0.66114 1.37052,0.31136 1.97616,-0.0237 0.73402,-0.18076 1.20155,-1.01347 0.76992,-1.68755 -1.43495,-2.87442 -2.37202,-6.07001 -2.3398,-9.28925 0.0768,-3.16728 1.47204,-6.16406 3.43318,-8.61554 1.36592,-1.86962 3.00397,-3.53823 4.27056,-5.47697 0.45038,-0.83805 -0.43022,-1.5625 -0.93063,-2.15259 -2.28342,-2.52991 -4.42148,-5.18787 -6.9592,-7.47089 -0.35664,-0.31201 -0.79782,-0.61756 -1.23743,-0.53963 z"
         id="path3260"
         inkscape:connector-curvature="0" />
      <path
         style="fill:#333333;fill-opacity:1;fill-rule:nonzero;stroke:none"
         d="m 297.52532,-115.18415 c -0.8505,0.35368 -1.51635,1.0397 -2.26535,1.56359 -0.99001,0.78577 -2.25016,1.64238 -2.30921,3.03948 -4.7e-4,1.11688 0.86366,1.98871 1.6557,2.66667 0.64816,0.54203 1.69466,0.29339 2.06141,-0.45834 0.82216,-1.51326 1.25069,-3.20102 1.83798,-4.81174 0.19477,-0.55009 0.46986,-1.24845 -0.0365,-1.72687 -0.21594,-0.25783 -0.62607,-0.33385 -0.94403,-0.27279 z"
         id="path3262"
         inkscape:connector-curvature="0" />
      <path
         style="fill:#ffffff;fill-opacity:1;fill-rule:nonzero;stroke:none"
         d="m 200.36045,-141.61676 c -1.23711,0.36408 -1.65068,1.82745 -1.97807,2.92982 -0.15965,1.12745 -0.67166,2.52783 0.15789,3.50439 0.84521,0.81784 1.98558,-0.11129 2.10965,-1.06579 0.40145,-1.41972 0.87397,-2.86257 0.96491,-4.33772 -0.0543,-0.626 -0.60925,-1.12869 -1.25438,-1.0307 z"
         id="path3264"
         inkscape:connector-curvature="0" />
      <path
         style="fill:#ffffff;fill-opacity:1;fill-rule:nonzero;stroke:none"
         d="m 215.58413,-166.74834 c -1.42245,0.42247 -2.2382,1.84345 -3.14478,2.9243 -0.49732,0.7849 -1.68609,1.79729 -0.87001,2.75827 0.8123,0.88503 1.85997,-0.0756 2.43146,-0.73082 1.02256,-1.15865 2.40497,-2.20231 2.83772,-3.74123 0.0797,-0.69355 -0.56078,-1.32383 -1.25439,-1.21052 z"
         id="path3266"
         inkscape:connector-curvature="0" />
      <path
         style="fill:#ffffff;fill-opacity:1;fill-rule:nonzero;stroke:none"
         d="m 292.12799,-164.82729 c -1.01629,0.53453 -0.48505,1.79329 0.19737,2.35965 1.02527,0.98405 1.8943,2.26745 3.20961,2.85839 1.05835,0.35011 1.85082,-1.13381 1.07109,-1.83646 -1.09055,-1.15531 -2.16799,-2.3524 -3.41667,-3.33772 -0.33957,-0.18659 -0.70469,-0.17509 -1.0614,-0.0439 z"
         id="path3268"
         inkscape:connector-curvature="0" />
      <path
         style="fill:#ffffff;fill-opacity:1;fill-rule:nonzero;stroke:none"
         d="m 306.16308,-141.42817 c -1.15343,0.50912 -0.51712,1.87259 -0.32973,2.76432 0.38101,1.02856 0.0487,2.36362 0.89552,3.16551 0.8859,0.68293 1.91628,-0.27369 1.92105,-1.21492 0.21153,-1.59436 -0.33,-3.30323 -1.35088,-4.52631 -0.31153,-0.27026 -0.75353,-0.31207 -1.13596,-0.1886 z"
         id="path3270"
         inkscape:connector-curvature="0" />
      <path
         style="fill:#ffffff;fill-opacity:1;fill-rule:nonzero;stroke:none"
         d="m 238.73463,-220.26977 c -0.70107,-0.0533 -1.46747,0.32811 -1.4715,1.0943 0.0349,0.90498 1.02335,1.18564 1.70395,1.49561 2.56734,1.01643 5.24298,1.72775 7.87182,2.5635 0.74665,0.15743 1.4655,0.59613 2.24002,0.50667 0.70419,-0.17258 0.96924,-1.03282 0.625,-1.63157 -0.49346,-1.30652 -1.88515,-1.85086 -3.08306,-2.31929 -2.38676,-0.85854 -4.87238,-1.53987 -7.41255,-1.70484 -0.15783,-0.005 -0.31579,-0.009 -0.47368,-0.004 z"
         id="path3272"
         inkscape:connector-curvature="0" />
      <path
         style="fill:#ffffff;fill-opacity:1;fill-rule:nonzero;stroke:none"
         d="m 268.4627,-220.36407 c -2.46343,0.16123 -4.88101,0.77459 -7.22369,1.5307 -1.16104,0.42368 -2.47663,0.86131 -3.18504,1.94908 -0.37217,0.6616 0.17918,1.53795 0.92846,1.53338 1.54031,0.0338 3.02969,-0.48982 4.51969,-0.8245 2.09305,-0.5784 4.22382,-1.10776 6.21935,-1.96278 0.63421,-0.23857 1.01026,-1.03672 0.61184,-1.63158 -0.42292,-0.58023 -1.21931,-0.60888 -1.87061,-0.5943 z"
         id="path3274"
         inkscape:connector-curvature="0" />
    </g>
  </g>
</svg>
